<?xml version="1.0" encoding="UTF-8" standalone="no"?>
<svg
   width="533px"
   height="500px"
   viewBox="0 0 533 500"
   version="1.1"
   id="svg623"
   sodipodi:docname="logo-square-white.svg"
   inkscape:version="1.1.2 (0a00cf5339, 2022-02-04)"
   xmlns:inkscape="http://www.inkscape.org/namespaces/inkscape"
   xmlns:sodipodi="http://sodipodi.sourceforge.net/DTD/sodipodi-0.dtd"
   xmlns="http://www.w3.org/2000/svg"
   xmlns:svg="http://www.w3.org/2000/svg">
  <defs
     id="defs627" />
  <sodipodi:namedview
     id="namedview625"
     pagecolor="#ffffff"
     bordercolor="#666666"
     borderopacity="1.0"
     inkscape:pageshadow="2"
     inkscape:pageopacity="0.0"
     inkscape:pagecheckerboard="0"
     showgrid="false"
     inkscape:zoom="1.746"
     inkscape:cx="144.61627"
     inkscape:cy="250"
     inkscape:window-width="3440"
     inkscape:window-height="1408"
     inkscape:window-x="1440"
     inkscape:window-y="381"
     inkscape:window-maximized="0"
     inkscape:current-layer="svg623" />
  <g
     id="surface1"
     style="fill:#ffffff"
     inkscape:export-filename="/home/cameron/Downloads/surface1.png"
     inkscape:export-xdpi="96"
     inkscape:export-ydpi="96">
    <path
       style="stroke:none;fill-rule:nonzero;fill:#ffffff;fill-opacity:1"
       d="M 193.445312 0 L 177.324219 0 L 177.324219 16.132812 L 193.445312 16.132812 Z M 193.445312 0 "
       id="path2" />
    <path
       style="stroke:none;fill-rule:nonzero;fill:#ffffff;fill-opacity:1"
       d="M 209.535156 0 L 193.414062 0 L 193.414062 16.132812 L 209.535156 16.132812 Z M 209.535156 0 "
       id="path4" />
    <path
       style="stroke:none;fill-rule:nonzero;fill:#ffffff;fill-opacity:1"
       d="M 241.78125 0 L 225.660156 0 L 225.660156 16.132812 L 241.78125 16.132812 Z M 241.78125 0 "
       id="path6" />
    <path
       style="stroke:none;fill-rule:nonzero;fill:#ffffff;fill-opacity:1"
       d="M 257.90625 0 L 241.78125 0 L 241.78125 16.132812 L 257.90625 16.132812 Z M 257.90625 0 "
       id="path8" />
    <path
       style="stroke:none;fill-rule:nonzero;fill:#ffffff;fill-opacity:1"
       d="M 290.152344 0 L 274.027344 0 L 274.027344 16.132812 L 290.152344 16.132812 Z M 290.152344 0 "
       id="path10" />
    <path
       style="stroke:none;fill-rule:nonzero;fill:#ffffff;fill-opacity:1"
       d="M 306.273438 0 L 290.152344 0 L 290.152344 16.132812 L 306.273438 16.132812 Z M 306.273438 0 "
       id="path12" />
    <path
       style="stroke:none;fill-rule:nonzero;fill:#ffffff;fill-opacity:1"
       d="M 338.488281 0 L 322.363281 0 L 322.363281 16.132812 L 338.488281 16.132812 Z M 338.488281 0 "
       id="path14" />
    <path
       style="stroke:none;fill-rule:nonzero;fill:#ffffff;fill-opacity:1"
       d="M 354.613281 0 L 338.488281 0 L 338.488281 16.132812 L 354.613281 16.132812 Z M 354.613281 0 "
       id="path16" />
    <path
       style="stroke:none;fill-rule:nonzero;fill:#ffffff;fill-opacity:1"
       d="M 386.859375 0 L 370.734375 0 L 370.734375 16.132812 L 386.859375 16.132812 Z M 386.859375 0 "
       id="path18" />
    <path
       style="stroke:none;fill-rule:nonzero;fill:#ffffff;fill-opacity:1"
       d="M 402.980469 0 L 386.859375 0 L 386.859375 16.132812 L 402.980469 16.132812 Z M 402.980469 0 "
       id="path20" />
    <path
       style="stroke:none;fill-rule:nonzero;fill:#ffffff;fill-opacity:1"
       d="M 435.226562 0 L 419.105469 0 L 419.105469 16.132812 L 435.226562 16.132812 Z M 435.226562 0 "
       id="path22" />
    <path
       style="stroke:none;fill-rule:nonzero;fill:#ffffff;fill-opacity:1"
       d="M 451.351562 0 L 435.226562 0 L 435.226562 16.132812 L 451.351562 16.132812 Z M 451.351562 0 "
       id="path24" />
    <path
       style="stroke:none;fill-rule:nonzero;fill:#ffffff;fill-opacity:1"
       d="M 177.324219 16.132812 L 161.199219 16.132812 L 161.199219 32.265625 L 177.324219 32.265625 Z M 177.324219 16.132812 "
       id="path26" />
    <path
       style="stroke:none;fill-rule:nonzero;fill:#ffffff;fill-opacity:1"
       d="M 209.535156 16.132812 L 193.414062 16.132812 L 193.414062 32.265625 L 209.535156 32.265625 Z M 209.535156 16.132812 "
       id="path28" />
    <path
       style="stroke:none;fill-rule:nonzero;fill:#ffffff;fill-opacity:1"
       d="M 225.660156 16.132812 L 209.535156 16.132812 L 209.535156 32.265625 L 225.660156 32.265625 Z M 225.660156 16.132812 "
       id="path30" />
    <path
       style="stroke:none;fill-rule:nonzero;fill:#ffffff;fill-opacity:1"
       d="M 257.90625 16.132812 L 241.78125 16.132812 L 241.78125 32.265625 L 257.90625 32.265625 Z M 257.90625 16.132812 "
       id="path32" />
    <path
       style="stroke:none;fill-rule:nonzero;fill:#ffffff;fill-opacity:1"
       d="M 274.027344 16.132812 L 257.90625 16.132812 L 257.90625 32.265625 L 274.027344 32.265625 Z M 274.027344 16.132812 "
       id="path34" />
    <path
       style="stroke:none;fill-rule:nonzero;fill:#ffffff;fill-opacity:1"
       d="M 306.273438 16.132812 L 290.152344 16.132812 L 290.152344 32.265625 L 306.273438 32.265625 Z M 306.273438 16.132812 "
       id="path36" />
    <path
       style="stroke:none;fill-rule:nonzero;fill:#ffffff;fill-opacity:1"
       d="M 322.398438 16.132812 L 306.273438 16.132812 L 306.273438 32.265625 L 322.398438 32.265625 Z M 322.398438 16.132812 "
       id="path38" />
    <path
       style="stroke:none;fill-rule:nonzero;fill:#ffffff;fill-opacity:1"
       d="M 354.613281 16.132812 L 338.488281 16.132812 L 338.488281 32.265625 L 354.613281 32.265625 Z M 354.613281 16.132812 "
       id="path40" />
    <path
       style="stroke:none;fill-rule:nonzero;fill:#ffffff;fill-opacity:1"
       d="M 370.734375 16.132812 L 354.613281 16.132812 L 354.613281 32.265625 L 370.734375 32.265625 Z M 370.734375 16.132812 "
       id="path42" />
    <path
       style="stroke:none;fill-rule:nonzero;fill:#ffffff;fill-opacity:1"
       d="M 402.980469 16.132812 L 386.859375 16.132812 L 386.859375 32.265625 L 402.980469 32.265625 Z M 402.980469 16.132812 "
       id="path44" />
    <path
       style="stroke:none;fill-rule:nonzero;fill:#ffffff;fill-opacity:1"
       d="M 419.105469 16.132812 L 402.980469 16.132812 L 402.980469 32.265625 L 419.105469 32.265625 Z M 419.105469 16.132812 "
       id="path46" />
    <path
       style="stroke:none;fill-rule:nonzero;fill:#ffffff;fill-opacity:1"
       d="M 451.351562 16.132812 L 435.226562 16.132812 L 435.226562 32.265625 L 451.351562 32.265625 Z M 451.351562 16.132812 "
       id="path48" />
    <path
       style="stroke:none;fill-rule:nonzero;fill:#ffffff;fill-opacity:1"
       d="M 467.441406 16.132812 L 451.316406 16.132812 L 451.316406 32.265625 L 467.441406 32.265625 Z M 467.441406 16.132812 "
       id="path50" />
    <path
       style="stroke:none;fill-rule:nonzero;fill:#ffffff;fill-opacity:1"
       d="M 483.5625 16.132812 L 467.441406 16.132812 L 467.441406 32.265625 L 483.5625 32.265625 Z M 483.5625 16.132812 "
       id="path52" />
    <path
       style="stroke:none;fill-rule:nonzero;fill:#ffffff;fill-opacity:1"
       d="M 161.199219 32.265625 L 145.074219 32.265625 L 145.074219 48.398438 L 161.199219 48.398438 Z M 161.199219 32.265625 "
       id="path54" />
    <path
       style="stroke:none;fill-rule:nonzero;fill:#ffffff;fill-opacity:1"
       d="M 193.445312 32.265625 L 177.324219 32.265625 L 177.324219 48.398438 L 193.445312 48.398438 Z M 193.445312 32.265625 "
       id="path56" />
    <path
       style="stroke:none;fill-rule:nonzero;fill:#ffffff;fill-opacity:1"
       d="M 241.78125 32.265625 L 225.660156 32.265625 L 225.660156 48.398438 L 241.78125 48.398438 Z M 241.78125 32.265625 "
       id="path58" />
    <path
       style="stroke:none;fill-rule:nonzero;fill:#ffffff;fill-opacity:1"
       d="M 290.152344 32.265625 L 274.027344 32.265625 L 274.027344 48.398438 L 290.152344 48.398438 Z M 290.152344 32.265625 "
       id="path60" />
    <path
       style="stroke:none;fill-rule:nonzero;fill:#ffffff;fill-opacity:1"
       d="M 338.488281 32.265625 L 322.363281 32.265625 L 322.363281 48.398438 L 338.488281 48.398438 Z M 338.488281 32.265625 "
       id="path62" />
    <path
       style="stroke:none;fill-rule:nonzero;fill:#ffffff;fill-opacity:1"
       d="M 370.734375 32.265625 L 354.613281 32.265625 L 354.613281 48.398438 L 370.734375 48.398438 Z M 370.734375 32.265625 "
       id="path64" />
    <path
       style="stroke:none;fill-rule:nonzero;fill:#ffffff;fill-opacity:1"
       d="M 386.859375 32.265625 L 370.734375 32.265625 L 370.734375 48.398438 L 386.859375 48.398438 Z M 386.859375 32.265625 "
       id="path66" />
    <path
       style="stroke:none;fill-rule:nonzero;fill:#ffffff;fill-opacity:1"
       d="M 402.980469 32.265625 L 386.859375 32.265625 L 386.859375 48.398438 L 402.980469 48.398438 Z M 402.980469 32.265625 "
       id="path68" />
    <path
       style="stroke:none;fill-rule:nonzero;fill:#ffffff;fill-opacity:1"
       d="M 435.226562 32.265625 L 419.105469 32.265625 L 419.105469 48.398438 L 435.226562 48.398438 Z M 435.226562 32.265625 "
       id="path70" />
    <path
       style="stroke:none;fill-rule:nonzero;fill:#ffffff;fill-opacity:1"
       d="M 483.5625 32.265625 L 467.441406 32.265625 L 467.441406 48.398438 L 483.5625 48.398438 Z M 483.5625 32.265625 "
       id="path72" />
    <path
       style="stroke:none;fill-rule:nonzero;fill:#ffffff;fill-opacity:1"
       d="M 499.6875 32.265625 L 483.5625 32.265625 L 483.5625 48.398438 L 499.6875 48.398438 Z M 499.6875 32.265625 "
       id="path74" />
    <path
       style="stroke:none;fill-rule:nonzero;fill:#ffffff;fill-opacity:1"
       d="M 161.199219 48.398438 L 145.074219 48.398438 L 145.074219 64.535156 L 161.199219 64.535156 Z M 161.199219 48.398438 "
       id="path76" />
    <path
       style="stroke:none;fill-rule:nonzero;fill:#ffffff;fill-opacity:1"
       d="M 467.441406 48.398438 L 451.316406 48.398438 L 451.316406 64.535156 L 467.441406 64.535156 Z M 467.441406 48.398438 "
       id="path78" />
    <path
       style="stroke:none;fill-rule:nonzero;fill:#ffffff;fill-opacity:1"
       d="M 515.8125 48.398438 L 499.6875 48.398438 L 499.6875 64.535156 L 515.8125 64.535156 Z M 515.8125 48.398438 "
       id="path80" />
    <path
       style="stroke:none;fill-rule:nonzero;fill:#ffffff;fill-opacity:1"
       d="M 145.074219 64.5 L 128.953125 64.5 L 128.953125 80.632812 L 145.074219 80.632812 Z M 145.074219 64.5 "
       id="path82" />
    <path
       style="stroke:none;fill-rule:nonzero;fill:#ffffff;fill-opacity:1"
       d="M 467.441406 64.5 L 451.316406 64.5 L 451.316406 80.632812 L 467.441406 80.632812 Z M 467.441406 64.5 "
       id="path84" />
    <path
       style="stroke:none;fill-rule:nonzero;fill:#ffffff;fill-opacity:1"
       d="M 515.8125 64.5 L 499.6875 64.5 L 499.6875 80.632812 L 515.8125 80.632812 Z M 515.8125 64.5 "
       id="path86" />
    <path
       style="stroke:none;fill-rule:nonzero;fill:#ffffff;fill-opacity:1"
       d="M 145.074219 80.632812 L 128.953125 80.632812 L 128.953125 96.765625 L 145.074219 96.765625 Z M 145.074219 80.632812 "
       id="path88" />
    <path
       style="stroke:none;fill-rule:nonzero;fill:#ffffff;fill-opacity:1"
       d="M 451.351562 80.632812 L 435.226562 80.632812 L 435.226562 96.765625 L 451.351562 96.765625 Z M 451.351562 80.632812 "
       id="path90" />
    <path
       style="stroke:none;fill-rule:nonzero;fill:#ffffff;fill-opacity:1"
       d="M 515.8125 80.632812 L 499.6875 80.632812 L 499.6875 96.765625 L 515.8125 96.765625 Z M 515.8125 80.632812 "
       id="path92" />
    <path
       style="stroke:none;fill-rule:nonzero;fill:#ffffff;fill-opacity:1"
       d="M 128.953125 96.765625 L 112.828125 96.765625 L 112.828125 112.898438 L 128.953125 112.898438 Z M 128.953125 96.765625 "
       id="path94" />
    <path
       style="stroke:none;fill-rule:nonzero;fill:#ffffff;fill-opacity:1"
       d="M 451.351562 96.765625 L 435.226562 96.765625 L 435.226562 112.898438 L 451.351562 112.898438 Z M 451.351562 96.765625 "
       id="path96" />
    <path
       style="stroke:none;fill-rule:nonzero;fill:#ffffff;fill-opacity:1"
       d="M 451.351562 112.898438 L 435.226562 112.898438 L 435.226562 129.035156 L 451.351562 129.035156 Z M 451.351562 112.898438 "
       id="path98" />
    <path
       style="stroke:none;fill-rule:nonzero;fill:#ffffff;fill-opacity:1"
       d="M 515.8125 96.765625 L 499.6875 96.765625 L 499.6875 112.898438 L 515.8125 112.898438 Z M 515.8125 96.765625 "
       id="path100" />
    <path
       style="stroke:none;fill-rule:nonzero;fill:#ffffff;fill-opacity:1"
       d="M 128.953125 112.898438 L 112.828125 112.898438 L 112.828125 129.035156 L 128.953125 129.035156 Z M 128.953125 112.898438 "
       id="path102" />
    <path
       style="stroke:none;fill-rule:nonzero;fill:#ffffff;fill-opacity:1"
       d="M 435.226562 112.898438 L 419.105469 112.898438 L 419.105469 129.035156 L 435.226562 129.035156 Z M 435.226562 112.898438 "
       id="path104" />
    <path
       style="stroke:none;fill-rule:nonzero;fill:#ffffff;fill-opacity:1"
       d="M 515.8125 112.898438 L 499.6875 112.898438 L 499.6875 129.035156 L 515.8125 129.035156 Z M 515.8125 112.898438 "
       id="path106" />
    <path
       style="stroke:none;fill-rule:nonzero;fill:#ffffff;fill-opacity:1"
       d="M 112.828125 129.035156 L 96.707031 129.035156 L 96.707031 145.167969 L 112.828125 145.167969 Z M 112.828125 129.035156 "
       id="path108" />
    <path
       style="stroke:none;fill-rule:nonzero;fill:#ffffff;fill-opacity:1"
       d="M 435.226562 129.035156 L 419.105469 129.035156 L 419.105469 145.167969 L 435.226562 145.167969 Z M 435.226562 129.035156 "
       id="path110" />
    <path
       style="stroke:none;fill-rule:nonzero;fill:#ffffff;fill-opacity:1"
       d="M 515.8125 129.035156 L 499.6875 129.035156 L 499.6875 145.167969 L 515.8125 145.167969 Z M 515.8125 129.035156 "
       id="path112" />
    <path
       style="stroke:none;fill-rule:nonzero;fill:#ffffff;fill-opacity:1"
       d="M 112.828125 145.167969 L 96.707031 145.167969 L 96.707031 161.300781 L 112.828125 161.300781 Z M 112.828125 145.167969 "
       id="path114" />
    <path
       style="stroke:none;fill-rule:nonzero;fill:#ffffff;fill-opacity:1"
       d="M 419.105469 145.167969 L 402.980469 145.167969 L 402.980469 161.300781 L 419.105469 161.300781 Z M 419.105469 145.167969 "
       id="path116" />
    <path
       style="stroke:none;fill-rule:nonzero;fill:#ffffff;fill-opacity:1"
       d="M 419.105469 161.300781 L 402.980469 161.300781 L 402.980469 177.433594 L 419.105469 177.433594 Z M 419.105469 161.300781 "
       id="path118" />
    <path
       style="stroke:none;fill-rule:nonzero;fill:#ffffff;fill-opacity:1"
       d="M 515.8125 145.167969 L 499.6875 145.167969 L 499.6875 161.300781 L 515.8125 161.300781 Z M 515.8125 145.167969 "
       id="path120" />
    <path
       style="stroke:none;fill-rule:nonzero;fill:#ffffff;fill-opacity:1"
       d="M 96.707031 161.300781 L 80.582031 161.300781 L 80.582031 177.433594 L 96.707031 177.433594 Z M 96.707031 161.300781 "
       id="path122" />
    <path
       style="stroke:none;fill-rule:nonzero;fill:#ffffff;fill-opacity:1"
       d="M 419.105469 209.667969 L 402.980469 209.667969 L 402.980469 225.800781 L 419.105469 225.800781 Z M 419.105469 209.667969 "
       id="path124" />
    <path
       style="stroke:none;fill-rule:nonzero;fill:#ffffff;fill-opacity:1"
       d="M 402.980469 209.667969 L 386.859375 209.667969 L 386.859375 225.800781 L 402.980469 225.800781 Z M 402.980469 209.667969 "
       id="path126" />
    <path
       style="stroke:none;fill-rule:nonzero;fill:#ffffff;fill-opacity:1"
       d="M 435.226562 209.667969 L 419.105469 209.667969 L 419.105469 225.800781 L 435.226562 225.800781 Z M 435.226562 209.667969 "
       id="path128" />
    <path
       style="stroke:none;fill-rule:nonzero;fill:#ffffff;fill-opacity:1"
       d="M 451.351562 209.667969 L 435.226562 209.667969 L 435.226562 225.800781 L 451.351562 225.800781 Z M 451.351562 209.667969 "
       id="path130" />
    <path
       style="stroke:none;fill-rule:nonzero;fill:#ffffff;fill-opacity:1"
       d="M 451.351562 145.167969 L 435.226562 145.167969 L 435.226562 161.300781 L 451.351562 161.300781 Z M 451.351562 145.167969 "
       id="path132" />
    <path
       style="stroke:none;fill-rule:nonzero;fill:#ffffff;fill-opacity:1"
       d="M 435.226562 145.167969 L 419.105469 145.167969 L 419.105469 161.300781 L 435.226562 161.300781 Z M 435.226562 145.167969 "
       id="path134" />
    <path
       style="stroke:none;fill-rule:nonzero;fill:#ffffff;fill-opacity:1"
       d="M 515.8125 161.300781 L 499.6875 161.300781 L 499.6875 177.433594 L 515.8125 177.433594 Z M 515.8125 161.300781 "
       id="path136" />
    <path
       style="stroke:none;fill-rule:nonzero;fill:#ffffff;fill-opacity:1"
       d="M 96.707031 177.433594 L 80.582031 177.433594 L 80.582031 193.566406 L 96.707031 193.566406 Z M 96.707031 177.433594 "
       id="path138" />
    <path
       style="stroke:none;fill-rule:nonzero;fill:#ffffff;fill-opacity:1"
       d="M 402.980469 177.433594 L 386.859375 177.433594 L 386.859375 193.566406 L 402.980469 193.566406 Z M 402.980469 177.433594 "
       id="path140" />
    <path
       style="stroke:none;fill-rule:nonzero;fill:#ffffff;fill-opacity:1"
       d="M 515.8125 177.433594 L 499.6875 177.433594 L 499.6875 193.566406 L 515.8125 193.566406 Z M 515.8125 177.433594 "
       id="path142" />
    <path
       style="stroke:none;fill-rule:nonzero;fill:#ffffff;fill-opacity:1"
       d="M 80.582031 193.535156 L 64.460938 193.535156 L 64.460938 209.667969 L 80.582031 209.667969 Z M 80.582031 193.535156 "
       id="path144" />
    <path
       style="stroke:none;fill-rule:nonzero;fill:#ffffff;fill-opacity:1"
       d="M 402.980469 193.535156 L 386.859375 193.535156 L 386.859375 209.667969 L 402.980469 209.667969 Z M 402.980469 193.535156 "
       id="path146" />
    <path
       style="stroke:none;fill-rule:nonzero;fill:#ffffff;fill-opacity:1"
       d="M 515.8125 193.535156 L 499.6875 193.535156 L 499.6875 209.667969 L 515.8125 209.667969 Z M 515.8125 193.535156 "
       id="path148" />
    <path
       style="stroke:none;fill-rule:nonzero;fill:#ffffff;fill-opacity:1"
       d="M 80.582031 209.667969 L 64.460938 209.667969 L 64.460938 225.800781 L 80.582031 225.800781 Z M 80.582031 209.667969 "
       id="path150" />
    <path
       style="stroke:none;fill-rule:nonzero;fill:#ffffff;fill-opacity:1"
       d="M 386.859375 209.667969 L 370.734375 209.667969 L 370.734375 225.800781 L 386.859375 225.800781 Z M 386.859375 209.667969 "
       id="path152" />
    <path
       style="stroke:none;fill-rule:nonzero;fill:#ffffff;fill-opacity:1"
       d="M 515.8125 209.667969 L 499.6875 209.667969 L 499.6875 225.800781 L 515.8125 225.800781 Z M 515.8125 209.667969 "
       id="path154" />
    <path
       style="stroke:none;fill-rule:nonzero;fill:#ffffff;fill-opacity:1"
       d="M 64.492188 225.800781 L 48.371094 225.800781 L 48.371094 241.933594 L 64.492188 241.933594 Z M 64.492188 225.800781 "
       id="path156" />
    <path
       style="stroke:none;fill-rule:nonzero;fill:#ffffff;fill-opacity:1"
       d="M 386.859375 225.800781 L 370.734375 225.800781 L 370.734375 241.933594 L 386.859375 241.933594 Z M 386.859375 225.800781 "
       id="path158" />
    <path
       style="stroke:none;fill-rule:nonzero;fill:#ffffff;fill-opacity:1"
       d="M 386.859375 274.199219 L 370.734375 274.199219 L 370.734375 290.332031 L 386.859375 290.332031 Z M 386.859375 274.199219 "
       id="path160" />
    <path
       style="stroke:none;fill-rule:nonzero;fill:#ffffff;fill-opacity:1"
       d="M 370.734375 274.199219 L 354.613281 274.199219 L 354.613281 290.332031 L 370.734375 290.332031 Z M 370.734375 274.199219 "
       id="path162" />
    <path
       style="stroke:none;fill-rule:nonzero;fill:#ffffff;fill-opacity:1"
       d="M 402.980469 274.199219 L 386.859375 274.199219 L 386.859375 290.332031 L 402.980469 290.332031 Z M 402.980469 274.199219 "
       id="path164" />
    <path
       style="stroke:none;fill-rule:nonzero;fill:#ffffff;fill-opacity:1"
       d="M 419.105469 274.199219 L 402.980469 274.199219 L 402.980469 290.332031 L 419.105469 290.332031 Z M 419.105469 274.199219 "
       id="path166" />
    <path
       style="stroke:none;fill-rule:nonzero;fill:#ffffff;fill-opacity:1"
       d="M 435.226562 274.199219 L 419.105469 274.199219 L 419.105469 290.332031 L 435.226562 290.332031 Z M 435.226562 274.199219 "
       id="path168" />
    <path
       style="stroke:none;fill-rule:nonzero;fill:#ffffff;fill-opacity:1"
       d="M 451.351562 274.199219 L 435.226562 274.199219 L 435.226562 290.332031 L 451.351562 290.332031 Z M 451.351562 274.199219 "
       id="path170" />
    <path
       style="stroke:none;fill-rule:nonzero;fill:#ffffff;fill-opacity:1"
       d="M 515.8125 225.800781 L 499.6875 225.800781 L 499.6875 241.933594 L 515.8125 241.933594 Z M 515.8125 225.800781 "
       id="path172" />
    <path
       style="stroke:none;fill-rule:nonzero;fill:#ffffff;fill-opacity:1"
       d="M 64.492188 241.933594 L 48.371094 241.933594 L 48.371094 258.066406 L 64.492188 258.066406 Z M 64.492188 241.933594 "
       id="path174" />
    <path
       style="stroke:none;fill-rule:nonzero;fill:#ffffff;fill-opacity:1"
       d="M 370.734375 241.933594 L 354.613281 241.933594 L 354.613281 258.066406 L 370.734375 258.066406 Z M 370.734375 241.933594 "
       id="path176" />
    <path
       style="stroke:none;fill-rule:nonzero;fill:#ffffff;fill-opacity:1"
       d="M 290.152344 145.167969 L 274.027344 145.167969 L 274.027344 161.300781 L 290.152344 161.300781 Z M 290.152344 145.167969 "
       id="path178" />
    <path
       style="stroke:none;fill-rule:nonzero;fill:#ffffff;fill-opacity:1"
       d="M 274.027344 145.167969 L 257.90625 145.167969 L 257.90625 161.300781 L 274.027344 161.300781 Z M 274.027344 145.167969 "
       id="path180" />
    <path
       style="stroke:none;fill-rule:nonzero;fill:#ffffff;fill-opacity:1"
       d="M 257.90625 145.167969 L 241.78125 145.167969 L 241.78125 161.300781 L 257.90625 161.300781 Z M 257.90625 145.167969 "
       id="path182" />
    <path
       style="stroke:none;fill-rule:nonzero;fill:#ffffff;fill-opacity:1"
       d="M 241.78125 145.167969 L 225.660156 145.167969 L 225.660156 161.300781 L 241.78125 161.300781 Z M 241.78125 145.167969 "
       id="path184" />
    <path
       style="stroke:none;fill-rule:nonzero;fill:#ffffff;fill-opacity:1"
       d="M 225.660156 145.167969 L 209.535156 145.167969 L 209.535156 161.300781 L 225.660156 161.300781 Z M 225.660156 145.167969 "
       id="path186" />
    <path
       style="stroke:none;fill-rule:nonzero;fill:#ffffff;fill-opacity:1"
       d="M 209.535156 145.167969 L 193.414062 145.167969 L 193.414062 161.300781 L 209.535156 161.300781 Z M 209.535156 145.167969 "
       id="path188" />
    <path
       style="stroke:none;fill-rule:nonzero;fill:#ffffff;fill-opacity:1"
       d="M 193.445312 145.167969 L 177.324219 145.167969 L 177.324219 161.300781 L 193.445312 161.300781 Z M 193.445312 145.167969 "
       id="path190" />
    <path
       style="stroke:none;fill-rule:nonzero;fill:#ffffff;fill-opacity:1"
       d="M 177.324219 145.167969 L 161.199219 145.167969 L 161.199219 161.300781 L 177.324219 161.300781 Z M 177.324219 145.167969 "
       id="path192" />
    <path
       style="stroke:none;fill-rule:nonzero;fill:#ffffff;fill-opacity:1"
       d="M 306.273438 145.167969 L 290.152344 145.167969 L 290.152344 161.300781 L 306.273438 161.300781 Z M 306.273438 145.167969 "
       id="path194" />
    <path
       style="stroke:none;fill-rule:nonzero;fill:#ffffff;fill-opacity:1"
       d="M 322.398438 145.167969 L 306.273438 145.167969 L 306.273438 161.300781 L 322.398438 161.300781 Z M 322.398438 145.167969 "
       id="path196" />
    <path
       style="stroke:none;fill-rule:nonzero;fill:#ffffff;fill-opacity:1"
       d="M 290.152344 209.667969 L 274.027344 209.667969 L 274.027344 225.800781 L 290.152344 225.800781 Z M 290.152344 209.667969 "
       id="path198" />
    <path
       style="stroke:none;fill-rule:nonzero;fill:#ffffff;fill-opacity:1"
       d="M 274.027344 209.667969 L 257.90625 209.667969 L 257.90625 225.800781 L 274.027344 225.800781 Z M 274.027344 209.667969 "
       id="path200" />
    <path
       style="stroke:none;fill-rule:nonzero;fill:#ffffff;fill-opacity:1"
       d="M 257.90625 209.667969 L 241.78125 209.667969 L 241.78125 225.800781 L 257.90625 225.800781 Z M 257.90625 209.667969 "
       id="path202" />
    <path
       style="stroke:none;fill-rule:nonzero;fill:#ffffff;fill-opacity:1"
       d="M 241.78125 209.667969 L 225.660156 209.667969 L 225.660156 225.800781 L 241.78125 225.800781 Z M 241.78125 209.667969 "
       id="path204" />
    <path
       style="stroke:none;fill-rule:nonzero;fill:#ffffff;fill-opacity:1"
       d="M 225.660156 209.667969 L 209.535156 209.667969 L 209.535156 225.800781 L 225.660156 225.800781 Z M 225.660156 209.667969 "
       id="path206" />
    <path
       style="stroke:none;fill-rule:nonzero;fill:#ffffff;fill-opacity:1"
       d="M 209.535156 209.667969 L 193.414062 209.667969 L 193.414062 225.800781 L 209.535156 225.800781 Z M 209.535156 209.667969 "
       id="path208" />
    <path
       style="stroke:none;fill-rule:nonzero;fill:#ffffff;fill-opacity:1"
       d="M 193.445312 209.667969 L 177.324219 209.667969 L 177.324219 225.800781 L 193.445312 225.800781 Z M 193.445312 209.667969 "
       id="path210" />
    <path
       style="stroke:none;fill-rule:nonzero;fill:#ffffff;fill-opacity:1"
       d="M 177.324219 209.667969 L 161.199219 209.667969 L 161.199219 225.800781 L 177.324219 225.800781 Z M 177.324219 209.667969 "
       id="path212" />
    <path
       style="stroke:none;fill-rule:nonzero;fill:#ffffff;fill-opacity:1"
       d="M 161.199219 209.667969 L 145.074219 209.667969 L 145.074219 225.800781 L 161.199219 225.800781 Z M 161.199219 209.667969 "
       id="path214" />
    <path
       style="stroke:none;fill-rule:nonzero;fill:#ffffff;fill-opacity:1"
       d="M 145.074219 209.667969 L 128.953125 209.667969 L 128.953125 225.800781 L 145.074219 225.800781 Z M 145.074219 209.667969 "
       id="path216" />
    <path
       style="stroke:none;fill-rule:nonzero;fill:#ffffff;fill-opacity:1"
       d="M 306.273438 209.667969 L 290.152344 209.667969 L 290.152344 225.800781 L 306.273438 225.800781 Z M 306.273438 209.667969 "
       id="path218" />
    <path
       style="stroke:none;fill-rule:nonzero;fill:#ffffff;fill-opacity:1"
       d="M 515.8125 241.933594 L 499.6875 241.933594 L 499.6875 258.066406 L 515.8125 258.066406 Z M 515.8125 241.933594 "
       id="path220" />
    <path
       style="stroke:none;fill-rule:nonzero;fill:#ffffff;fill-opacity:1"
       d="M 48.371094 258.066406 L 32.246094 258.066406 L 32.246094 274.199219 L 48.371094 274.199219 Z M 48.371094 258.066406 "
       id="path222" />
    <path
       style="stroke:none;fill-rule:nonzero;fill:#ffffff;fill-opacity:1"
       d="M 370.734375 258.066406 L 354.613281 258.066406 L 354.613281 274.199219 L 370.734375 274.199219 Z M 370.734375 258.066406 "
       id="path224" />
    <path
       style="stroke:none;fill-rule:nonzero;fill:#ffffff;fill-opacity:1"
       d="M 515.8125 258.066406 L 499.6875 258.066406 L 499.6875 274.199219 L 515.8125 274.199219 Z M 515.8125 258.066406 "
       id="path226" />
    <path
       style="stroke:none;fill-rule:nonzero;fill:#ffffff;fill-opacity:1"
       d="M 48.371094 274.199219 L 32.246094 274.199219 L 32.246094 290.332031 L 48.371094 290.332031 Z M 48.371094 274.199219 "
       id="path228" />
    <path
       style="stroke:none;fill-rule:nonzero;fill:#ffffff;fill-opacity:1"
       d="M 32.246094 290.332031 L 16.125 290.332031 L 16.125 306.464844 L 32.246094 306.464844 Z M 32.246094 290.332031 "
       id="path230" />
    <path
       style="stroke:none;fill-rule:nonzero;fill:#ffffff;fill-opacity:1"
       d="M 32.246094 306.464844 L 16.125 306.464844 L 16.125 322.601562 L 32.246094 322.601562 Z M 32.246094 306.464844 "
       id="path232" />
    <path
       style="stroke:none;fill-rule:nonzero;fill:#ffffff;fill-opacity:1"
       d="M 354.613281 274.199219 L 338.488281 274.199219 L 338.488281 290.332031 L 354.613281 290.332031 Z M 354.613281 274.199219 "
       id="path234" />
    <path
       style="stroke:none;fill-rule:nonzero;fill:#ffffff;fill-opacity:1"
       d="M 515.8125 274.199219 L 499.6875 274.199219 L 499.6875 290.332031 L 515.8125 290.332031 Z M 515.8125 274.199219 "
       id="path236" />
    <path
       style="stroke:none;fill-rule:nonzero;fill:#ffffff;fill-opacity:1"
       d="M 354.613281 290.332031 L 338.488281 290.332031 L 338.488281 306.464844 L 354.613281 306.464844 Z M 354.613281 290.332031 "
       id="path238" />
    <path
       style="stroke:none;fill-rule:nonzero;fill:#ffffff;fill-opacity:1"
       d="M 338.488281 306.464844 L 322.363281 306.464844 L 322.363281 322.601562 L 338.488281 322.601562 Z M 338.488281 306.464844 "
       id="path240" />
    <path
       style="stroke:none;fill-rule:nonzero;fill:#ffffff;fill-opacity:1"
       d="M 338.488281 322.566406 L 322.363281 322.566406 L 322.363281 338.699219 L 338.488281 338.699219 Z M 338.488281 322.566406 "
       id="path242" />
    <path
       style="stroke:none;fill-rule:nonzero;fill:#ffffff;fill-opacity:1"
       d="M 338.488281 338.699219 L 322.363281 338.699219 L 322.363281 354.832031 L 338.488281 354.832031 Z M 338.488281 338.699219 "
       id="path244" />
    <path
       style="stroke:none;fill-rule:nonzero;fill:#ffffff;fill-opacity:1"
       d="M 451.351562 48.398438 L 435.226562 48.398438 L 435.226562 64.535156 L 451.351562 64.535156 Z M 451.351562 48.398438 "
       id="path246" />
    <path
       style="stroke:none;fill-rule:nonzero;fill:#ffffff;fill-opacity:1"
       d="M 451.351562 64.5 L 435.226562 64.5 L 435.226562 80.632812 L 451.351562 80.632812 Z M 451.351562 64.5 "
       id="path248" />
    <path
       style="stroke:none;fill-rule:nonzero;fill:#ffffff;fill-opacity:1"
       d="M 435.226562 80.632812 L 419.105469 80.632812 L 419.105469 96.765625 L 435.226562 96.765625 Z M 435.226562 80.632812 "
       id="path250" />
    <path
       style="stroke:none;fill-rule:nonzero;fill:#ffffff;fill-opacity:1"
       d="M 435.226562 96.765625 L 419.105469 96.765625 L 419.105469 112.898438 L 435.226562 112.898438 Z M 435.226562 96.765625 "
       id="path252" />
    <path
       style="stroke:none;fill-rule:nonzero;fill:#ffffff;fill-opacity:1"
       d="M 435.226562 112.898438 L 419.105469 112.898438 L 419.105469 129.035156 L 435.226562 129.035156 Z M 435.226562 112.898438 "
       id="path254" />
    <path
       style="stroke:none;fill-rule:nonzero;fill:#ffffff;fill-opacity:1"
       d="M 419.105469 112.898438 L 402.980469 112.898438 L 402.980469 129.035156 L 419.105469 129.035156 Z M 419.105469 112.898438 "
       id="path256" />
    <path
       style="stroke:none;fill-rule:nonzero;fill:#ffffff;fill-opacity:1"
       d="M 419.105469 129.035156 L 402.980469 129.035156 L 402.980469 145.167969 L 419.105469 145.167969 Z M 419.105469 129.035156 "
       id="path258" />
    <path
       style="stroke:none;fill-rule:nonzero;fill:#ffffff;fill-opacity:1"
       d="M 402.980469 145.167969 L 386.859375 145.167969 L 386.859375 161.300781 L 402.980469 161.300781 Z M 402.980469 145.167969 "
       id="path260" />
    <path
       style="stroke:none;fill-rule:nonzero;fill:#ffffff;fill-opacity:1"
       d="M 402.980469 161.300781 L 386.859375 161.300781 L 386.859375 177.433594 L 402.980469 177.433594 Z M 402.980469 161.300781 "
       id="path262" />
    <path
       style="stroke:none;fill-rule:nonzero;fill:#ffffff;fill-opacity:1"
       d="M 386.859375 177.433594 L 370.734375 177.433594 L 370.734375 193.566406 L 386.859375 193.566406 Z M 386.859375 177.433594 "
       id="path264" />
    <path
       style="stroke:none;fill-rule:nonzero;fill:#ffffff;fill-opacity:1"
       d="M 386.859375 193.535156 L 370.734375 193.535156 L 370.734375 209.667969 L 386.859375 209.667969 Z M 386.859375 193.535156 "
       id="path266" />
    <path
       style="stroke:none;fill-rule:nonzero;fill:#ffffff;fill-opacity:1"
       d="M 370.734375 209.667969 L 354.613281 209.667969 L 354.613281 225.800781 L 370.734375 225.800781 Z M 370.734375 209.667969 "
       id="path268" />
    <path
       style="stroke:none;fill-rule:nonzero;fill:#ffffff;fill-opacity:1"
       d="M 370.734375 225.800781 L 354.613281 225.800781 L 354.613281 241.933594 L 370.734375 241.933594 Z M 370.734375 225.800781 "
       id="path270" />
    <path
       style="stroke:none;fill-rule:nonzero;fill:#ffffff;fill-opacity:1"
       d="M 354.613281 241.933594 L 338.488281 241.933594 L 338.488281 258.066406 L 354.613281 258.066406 Z M 354.613281 241.933594 "
       id="path272" />
    <path
       style="stroke:none;fill-rule:nonzero;fill:#ffffff;fill-opacity:1"
       d="M 354.613281 258.066406 L 338.488281 258.066406 L 338.488281 274.199219 L 354.613281 274.199219 Z M 354.613281 258.066406 "
       id="path274" />
    <path
       style="stroke:none;fill-rule:nonzero;fill:#ffffff;fill-opacity:1"
       d="M 338.488281 274.199219 L 322.363281 274.199219 L 322.363281 290.332031 L 338.488281 290.332031 Z M 338.488281 274.199219 "
       id="path276" />
    <path
       style="stroke:none;fill-rule:nonzero;fill:#ffffff;fill-opacity:1"
       d="M 338.488281 290.332031 L 322.363281 290.332031 L 322.363281 306.464844 L 338.488281 306.464844 Z M 338.488281 290.332031 "
       id="path278" />
    <path
       style="stroke:none;fill-rule:nonzero;fill:#ffffff;fill-opacity:1"
       d="M 322.398438 306.464844 L 306.273438 306.464844 L 306.273438 322.601562 L 322.398438 322.601562 Z M 322.398438 306.464844 "
       id="path280" />
    <path
       style="stroke:none;fill-rule:nonzero;fill:#ffffff;fill-opacity:1"
       d="M 322.398438 322.566406 L 306.273438 322.566406 L 306.273438 338.699219 L 322.398438 338.699219 Z M 322.398438 322.566406 "
       id="path282" />
    <path
       style="stroke:none;fill-rule:nonzero;fill:#ffffff;fill-opacity:1"
       d="M 322.398438 338.699219 L 306.273438 338.699219 L 306.273438 354.832031 L 322.398438 354.832031 Z M 322.398438 338.699219 "
       id="path284" />
    <path
       style="stroke:none;fill-rule:nonzero;fill:#ffffff;fill-opacity:1"
       d="M 322.398438 354.832031 L 306.273438 354.832031 L 306.273438 370.964844 L 322.398438 370.964844 Z M 322.398438 354.832031 "
       id="path286" />
    <path
       style="stroke:none;fill-rule:nonzero;fill:#ffffff;fill-opacity:1"
       d="M 306.273438 354.832031 L 290.152344 354.832031 L 290.152344 370.964844 L 306.273438 370.964844 Z M 306.273438 354.832031 "
       id="path288" />
    <path
       style="stroke:none;fill-rule:nonzero;fill:#ffffff;fill-opacity:1"
       d="M 290.152344 354.832031 L 274.027344 354.832031 L 274.027344 370.964844 L 290.152344 370.964844 Z M 290.152344 354.832031 "
       id="path290" />
    <path
       style="stroke:none;fill-rule:nonzero;fill:#ffffff;fill-opacity:1"
       d="M 274.027344 354.832031 L 257.90625 354.832031 L 257.90625 370.964844 L 274.027344 370.964844 Z M 274.027344 354.832031 "
       id="path292" />
    <path
       style="stroke:none;fill-rule:nonzero;fill:#ffffff;fill-opacity:1"
       d="M 257.90625 354.832031 L 241.78125 354.832031 L 241.78125 370.964844 L 257.90625 370.964844 Z M 257.90625 354.832031 "
       id="path294" />
    <path
       style="stroke:none;fill-rule:nonzero;fill:#ffffff;fill-opacity:1"
       d="M 241.78125 354.832031 L 225.660156 354.832031 L 225.660156 370.964844 L 241.78125 370.964844 Z M 241.78125 354.832031 "
       id="path296" />
    <path
       style="stroke:none;fill-rule:nonzero;fill:#ffffff;fill-opacity:1"
       d="M 225.660156 354.832031 L 209.535156 354.832031 L 209.535156 370.964844 L 225.660156 370.964844 Z M 225.660156 354.832031 "
       id="path298" />
    <path
       style="stroke:none;fill-rule:nonzero;fill:#ffffff;fill-opacity:1"
       d="M 209.535156 354.832031 L 193.414062 354.832031 L 193.414062 370.964844 L 209.535156 370.964844 Z M 209.535156 354.832031 "
       id="path300" />
    <path
       style="stroke:none;fill-rule:nonzero;fill:#ffffff;fill-opacity:1"
       d="M 193.445312 354.832031 L 177.324219 354.832031 L 177.324219 370.964844 L 193.445312 370.964844 Z M 193.445312 354.832031 "
       id="path302" />
    <path
       style="stroke:none;fill-rule:nonzero;fill:#ffffff;fill-opacity:1"
       d="M 177.324219 354.832031 L 161.199219 354.832031 L 161.199219 370.964844 L 177.324219 370.964844 Z M 177.324219 354.832031 "
       id="path304" />
    <path
       style="stroke:none;fill-rule:nonzero;fill:#ffffff;fill-opacity:1"
       d="M 161.199219 354.832031 L 145.074219 354.832031 L 145.074219 370.964844 L 161.199219 370.964844 Z M 161.199219 354.832031 "
       id="path306" />
    <path
       style="stroke:none;fill-rule:nonzero;fill:#ffffff;fill-opacity:1"
       d="M 145.074219 354.832031 L 128.953125 354.832031 L 128.953125 370.964844 L 145.074219 370.964844 Z M 145.074219 354.832031 "
       id="path308" />
    <path
       style="stroke:none;fill-rule:nonzero;fill:#ffffff;fill-opacity:1"
       d="M 128.953125 354.832031 L 112.828125 354.832031 L 112.828125 370.964844 L 128.953125 370.964844 Z M 128.953125 354.832031 "
       id="path310" />
    <path
       style="stroke:none;fill-rule:nonzero;fill:#ffffff;fill-opacity:1"
       d="M 112.828125 354.832031 L 96.707031 354.832031 L 96.707031 370.964844 L 112.828125 370.964844 Z M 112.828125 354.832031 "
       id="path312" />
    <path
       style="stroke:none;fill-rule:nonzero;fill:#ffffff;fill-opacity:1"
       d="M 96.707031 354.832031 L 80.582031 354.832031 L 80.582031 370.964844 L 96.707031 370.964844 Z M 96.707031 354.832031 "
       id="path314" />
    <path
       style="stroke:none;fill-rule:nonzero;fill:#ffffff;fill-opacity:1"
       d="M 80.582031 354.832031 L 64.460938 354.832031 L 64.460938 370.964844 L 80.582031 370.964844 Z M 80.582031 354.832031 "
       id="path316" />
    <path
       style="stroke:none;fill-rule:nonzero;fill:#ffffff;fill-opacity:1"
       d="M 64.492188 354.832031 L 48.371094 354.832031 L 48.371094 370.964844 L 64.492188 370.964844 Z M 64.492188 354.832031 "
       id="path318" />
    <path
       style="stroke:none;fill-rule:nonzero;fill:#ffffff;fill-opacity:1"
       d="M 48.371094 354.832031 L 32.246094 354.832031 L 32.246094 370.964844 L 48.371094 370.964844 Z M 48.371094 354.832031 "
       id="path320" />
    <path
       style="stroke:none;fill-rule:nonzero;fill:#ffffff;fill-opacity:1"
       d="M 306.273438 338.699219 L 290.152344 338.699219 L 290.152344 354.832031 L 306.273438 354.832031 Z M 306.273438 338.699219 "
       id="path322" />
    <path
       style="stroke:none;fill-rule:nonzero;fill:#ffffff;fill-opacity:1"
       d="M 290.152344 338.699219 L 274.027344 338.699219 L 274.027344 354.832031 L 290.152344 354.832031 Z M 290.152344 338.699219 "
       id="path324" />
    <path
       style="stroke:none;fill-rule:nonzero;fill:#ffffff;fill-opacity:1"
       d="M 274.027344 338.699219 L 257.90625 338.699219 L 257.90625 354.832031 L 274.027344 354.832031 Z M 274.027344 338.699219 "
       id="path326" />
    <path
       style="stroke:none;fill-rule:nonzero;fill:#ffffff;fill-opacity:1"
       d="M 257.90625 338.699219 L 241.78125 338.699219 L 241.78125 354.832031 L 257.90625 354.832031 Z M 257.90625 338.699219 "
       id="path328" />
    <path
       style="stroke:none;fill-rule:nonzero;fill:#ffffff;fill-opacity:1"
       d="M 241.78125 338.699219 L 225.660156 338.699219 L 225.660156 354.832031 L 241.78125 354.832031 Z M 241.78125 338.699219 "
       id="path330" />
    <path
       style="stroke:none;fill-rule:nonzero;fill:#ffffff;fill-opacity:1"
       d="M 225.660156 338.699219 L 209.535156 338.699219 L 209.535156 354.832031 L 225.660156 354.832031 Z M 225.660156 338.699219 "
       id="path332" />
    <path
       style="stroke:none;fill-rule:nonzero;fill:#ffffff;fill-opacity:1"
       d="M 209.535156 338.699219 L 193.414062 338.699219 L 193.414062 354.832031 L 209.535156 354.832031 Z M 209.535156 338.699219 "
       id="path334" />
    <path
       style="stroke:none;fill-rule:nonzero;fill:#ffffff;fill-opacity:1"
       d="M 193.445312 338.699219 L 177.324219 338.699219 L 177.324219 354.832031 L 193.445312 354.832031 Z M 193.445312 338.699219 "
       id="path336" />
    <path
       style="stroke:none;fill-rule:nonzero;fill:#ffffff;fill-opacity:1"
       d="M 177.324219 338.699219 L 161.199219 338.699219 L 161.199219 354.832031 L 177.324219 354.832031 Z M 177.324219 338.699219 "
       id="path338" />
    <path
       style="stroke:none;fill-rule:nonzero;fill:#ffffff;fill-opacity:1"
       d="M 161.199219 338.699219 L 145.074219 338.699219 L 145.074219 354.832031 L 161.199219 354.832031 Z M 161.199219 338.699219 "
       id="path340" />
    <path
       style="stroke:none;fill-rule:nonzero;fill:#ffffff;fill-opacity:1"
       d="M 145.074219 338.699219 L 128.953125 338.699219 L 128.953125 354.832031 L 145.074219 354.832031 Z M 145.074219 338.699219 "
       id="path342" />
    <path
       style="stroke:none;fill-rule:nonzero;fill:#ffffff;fill-opacity:1"
       d="M 128.953125 338.699219 L 112.828125 338.699219 L 112.828125 354.832031 L 128.953125 354.832031 Z M 128.953125 338.699219 "
       id="path344" />
    <path
       style="stroke:none;fill-rule:nonzero;fill:#ffffff;fill-opacity:1"
       d="M 112.828125 338.699219 L 96.707031 338.699219 L 96.707031 354.832031 L 112.828125 354.832031 Z M 112.828125 338.699219 "
       id="path346" />
    <path
       style="stroke:none;fill-rule:nonzero;fill:#ffffff;fill-opacity:1"
       d="M 96.707031 338.699219 L 80.582031 338.699219 L 80.582031 354.832031 L 96.707031 354.832031 Z M 96.707031 338.699219 "
       id="path348" />
    <path
       style="stroke:none;fill-rule:nonzero;fill:#ffffff;fill-opacity:1"
       d="M 80.582031 338.699219 L 64.460938 338.699219 L 64.460938 354.832031 L 80.582031 354.832031 Z M 80.582031 338.699219 "
       id="path350" />
    <path
       style="stroke:none;fill-rule:nonzero;fill:#ffffff;fill-opacity:1"
       d="M 64.492188 338.699219 L 48.371094 338.699219 L 48.371094 354.832031 L 64.492188 354.832031 Z M 64.492188 338.699219 "
       id="path352" />
    <path
       style="stroke:none;fill-rule:nonzero;fill:#ffffff;fill-opacity:1"
       d="M 48.371094 338.699219 L 32.246094 338.699219 L 32.246094 354.832031 L 48.371094 354.832031 Z M 48.371094 338.699219 "
       id="path354" />
    <path
       style="stroke:none;fill-rule:nonzero;fill:#ffffff;fill-opacity:1"
       d="M 32.246094 322.566406 L 16.125 322.566406 L 16.125 338.699219 L 32.246094 338.699219 Z M 32.246094 322.566406 "
       id="path356" />
    <path
       style="stroke:none;fill-rule:nonzero;fill:#ffffff;fill-opacity:1"
       d="M 32.246094 338.699219 L 16.125 338.699219 L 16.125 354.832031 L 32.246094 354.832031 Z M 32.246094 338.699219 "
       id="path358" />
    <path
       style="stroke:none;fill-rule:nonzero;fill:#ffffff;fill-opacity:1"
       d="M 145.074219 32.265625 L 128.953125 32.265625 L 128.953125 48.398438 L 145.074219 48.398438 Z M 145.074219 32.265625 "
       id="path360" />
    <path
       style="stroke:none;fill-rule:nonzero;fill:#ffffff;fill-opacity:1"
       d="M 145.074219 48.398438 L 128.953125 48.398438 L 128.953125 64.535156 L 145.074219 64.535156 Z M 145.074219 48.398438 "
       id="path362" />
    <path
       style="stroke:none;fill-rule:nonzero;fill:#ffffff;fill-opacity:1"
       d="M 128.953125 64.5 L 112.828125 64.5 L 112.828125 80.632812 L 128.953125 80.632812 Z M 128.953125 64.5 "
       id="path364" />
    <path
       style="stroke:none;fill-rule:nonzero;fill:#ffffff;fill-opacity:1"
       d="M 128.953125 80.632812 L 112.828125 80.632812 L 112.828125 96.765625 L 128.953125 96.765625 Z M 128.953125 80.632812 "
       id="path366" />
    <path
       style="stroke:none;fill-rule:nonzero;fill:#ffffff;fill-opacity:1"
       d="M 112.828125 96.765625 L 96.707031 96.765625 L 96.707031 112.898438 L 112.828125 112.898438 Z M 112.828125 96.765625 "
       id="path368" />
    <path
       style="stroke:none;fill-rule:nonzero;fill:#ffffff;fill-opacity:1"
       d="M 112.828125 112.898438 L 96.707031 112.898438 L 96.707031 129.035156 L 112.828125 129.035156 Z M 112.828125 112.898438 "
       id="path370" />
    <path
       style="stroke:none;fill-rule:nonzero;fill:#ffffff;fill-opacity:1"
       d="M 96.707031 129.035156 L 80.582031 129.035156 L 80.582031 145.167969 L 96.707031 145.167969 Z M 96.707031 129.035156 "
       id="path372" />
    <path
       style="stroke:none;fill-rule:nonzero;fill:#ffffff;fill-opacity:1"
       d="M 96.707031 145.167969 L 80.582031 145.167969 L 80.582031 161.300781 L 96.707031 161.300781 Z M 96.707031 145.167969 "
       id="path374" />
    <path
       style="stroke:none;fill-rule:nonzero;fill:#ffffff;fill-opacity:1"
       d="M 80.582031 161.300781 L 64.460938 161.300781 L 64.460938 177.433594 L 80.582031 177.433594 Z M 80.582031 161.300781 "
       id="path376" />
    <path
       style="stroke:none;fill-rule:nonzero;fill:#ffffff;fill-opacity:1"
       d="M 80.582031 177.433594 L 64.460938 177.433594 L 64.460938 193.566406 L 80.582031 193.566406 Z M 80.582031 177.433594 "
       id="path378" />
    <path
       style="stroke:none;fill-rule:nonzero;fill:#ffffff;fill-opacity:1"
       d="M 64.492188 193.535156 L 48.371094 193.535156 L 48.371094 209.667969 L 64.492188 209.667969 Z M 64.492188 193.535156 "
       id="path380" />
    <path
       style="stroke:none;fill-rule:nonzero;fill:#ffffff;fill-opacity:1"
       d="M 64.492188 209.667969 L 48.371094 209.667969 L 48.371094 225.800781 L 64.492188 225.800781 Z M 64.492188 209.667969 "
       id="path382" />
    <path
       style="stroke:none;fill-rule:nonzero;fill:#ffffff;fill-opacity:1"
       d="M 48.371094 225.800781 L 32.246094 225.800781 L 32.246094 241.933594 L 48.371094 241.933594 Z M 48.371094 225.800781 "
       id="path384" />
    <path
       style="stroke:none;fill-rule:nonzero;fill:#ffffff;fill-opacity:1"
       d="M 48.371094 241.933594 L 32.246094 241.933594 L 32.246094 258.066406 L 48.371094 258.066406 Z M 48.371094 241.933594 "
       id="path386" />
    <path
       style="stroke:none;fill-rule:nonzero;fill:#ffffff;fill-opacity:1"
       d="M 32.246094 258.066406 L 16.125 258.066406 L 16.125 274.199219 L 32.246094 274.199219 Z M 32.246094 258.066406 "
       id="path388" />
    <path
       style="stroke:none;fill-rule:nonzero;fill:#ffffff;fill-opacity:1"
       d="M 32.246094 274.199219 L 16.125 274.199219 L 16.125 290.332031 L 32.246094 290.332031 Z M 32.246094 274.199219 "
       id="path390" />
    <path
       style="stroke:none;fill-rule:nonzero;fill:#ffffff;fill-opacity:1"
       d="M 16.125 290.332031 L 0 290.332031 L 0 306.464844 L 16.125 306.464844 Z M 16.125 290.332031 "
       id="path392" />
    <path
       style="stroke:none;fill-rule:nonzero;fill:#ffffff;fill-opacity:1"
       d="M 16.125 306.464844 L 0 306.464844 L 0 322.601562 L 16.125 322.601562 Z M 16.125 306.464844 "
       id="path394" />
    <path
       style="stroke:none;fill-rule:nonzero;fill:#ffffff;fill-opacity:1"
       d="M 16.125 322.566406 L 0 322.566406 L 0 338.699219 L 16.125 338.699219 Z M 16.125 322.566406 "
       id="path396" />
    <path
       style="stroke:none;fill-rule:nonzero;fill:#ffffff;fill-opacity:1"
       d="M 16.125 338.699219 L 0 338.699219 L 0 354.832031 L 16.125 354.832031 Z M 16.125 338.699219 "
       id="path398" />
    <path
       style="stroke:none;fill-rule:nonzero;fill:#ffffff;fill-opacity:1"
       d="M 370.734375 338.699219 L 354.613281 338.699219 L 354.613281 354.832031 L 370.734375 354.832031 Z M 370.734375 338.699219 "
       id="path400" />
    <path
       style="stroke:none;fill-rule:nonzero;fill:#ffffff;fill-opacity:1"
       d="M 354.613281 338.699219 L 338.488281 338.699219 L 338.488281 354.832031 L 354.613281 354.832031 Z M 354.613281 338.699219 "
       id="path402" />
    <path
       style="stroke:none;fill-rule:nonzero;fill:#ffffff;fill-opacity:1"
       d="M 386.859375 338.699219 L 370.734375 338.699219 L 370.734375 354.832031 L 386.859375 354.832031 Z M 386.859375 338.699219 "
       id="path404" />
    <path
       style="stroke:none;fill-rule:nonzero;fill:#ffffff;fill-opacity:1"
       d="M 402.980469 338.699219 L 386.859375 338.699219 L 386.859375 354.832031 L 402.980469 354.832031 Z M 402.980469 338.699219 "
       id="path406" />
    <path
       style="stroke:none;fill-rule:nonzero;fill:#ffffff;fill-opacity:1"
       d="M 419.105469 338.699219 L 402.980469 338.699219 L 402.980469 354.832031 L 419.105469 354.832031 Z M 419.105469 338.699219 "
       id="path408" />
    <path
       style="stroke:none;fill-rule:nonzero;fill:#ffffff;fill-opacity:1"
       d="M 435.226562 338.699219 L 419.105469 338.699219 L 419.105469 354.832031 L 435.226562 354.832031 Z M 435.226562 338.699219 "
       id="path410" />
    <path
       style="stroke:none;fill-rule:nonzero;fill:#ffffff;fill-opacity:1"
       d="M 451.351562 338.699219 L 435.226562 338.699219 L 435.226562 354.832031 L 451.351562 354.832031 Z M 451.351562 338.699219 "
       id="path412" />
    <path
       style="stroke:none;fill-rule:nonzero;fill:#ffffff;fill-opacity:1"
       d="M 451.351562 403.234375 L 435.226562 403.234375 L 435.226562 419.367188 L 451.351562 419.367188 Z M 451.351562 403.234375 "
       id="path414" />
    <path
       style="stroke:none;fill-rule:nonzero;fill:#ffffff;fill-opacity:1"
       d="M 435.226562 403.234375 L 419.105469 403.234375 L 419.105469 419.367188 L 435.226562 419.367188 Z M 435.226562 403.234375 "
       id="path416" />
    <path
       style="stroke:none;fill-rule:nonzero;fill:#ffffff;fill-opacity:1"
       d="M 419.105469 403.234375 L 402.980469 403.234375 L 402.980469 419.367188 L 419.105469 419.367188 Z M 419.105469 403.234375 "
       id="path418" />
    <path
       style="stroke:none;fill-rule:nonzero;fill:#ffffff;fill-opacity:1"
       d="M 402.980469 403.234375 L 386.859375 403.234375 L 386.859375 419.367188 L 402.980469 419.367188 Z M 402.980469 403.234375 "
       id="path420" />
    <path
       style="stroke:none;fill-rule:nonzero;fill:#ffffff;fill-opacity:1"
       d="M 386.859375 403.234375 L 370.734375 403.234375 L 370.734375 419.367188 L 386.859375 419.367188 Z M 386.859375 403.234375 "
       id="path422" />
    <path
       style="stroke:none;fill-rule:nonzero;fill:#ffffff;fill-opacity:1"
       d="M 370.734375 403.234375 L 354.613281 403.234375 L 354.613281 419.367188 L 370.734375 419.367188 Z M 370.734375 403.234375 "
       id="path424" />
    <path
       style="stroke:none;fill-rule:nonzero;fill:#ffffff;fill-opacity:1"
       d="M 354.613281 403.234375 L 338.488281 403.234375 L 338.488281 419.367188 L 354.613281 419.367188 Z M 354.613281 403.234375 "
       id="path426" />
    <path
       style="stroke:none;fill-rule:nonzero;fill:#ffffff;fill-opacity:1"
       d="M 338.488281 403.234375 L 322.363281 403.234375 L 322.363281 419.367188 L 338.488281 419.367188 Z M 338.488281 403.234375 "
       id="path428" />
    <path
       style="stroke:none;fill-rule:nonzero;fill:#ffffff;fill-opacity:1"
       d="M 322.398438 403.234375 L 306.273438 403.234375 L 306.273438 419.367188 L 322.398438 419.367188 Z M 322.398438 403.234375 "
       id="path430" />
    <path
       style="stroke:none;fill-rule:nonzero;fill:#ffffff;fill-opacity:1"
       d="M 306.273438 403.234375 L 290.152344 403.234375 L 290.152344 419.367188 L 306.273438 419.367188 Z M 306.273438 403.234375 "
       id="path432" />
    <path
       style="stroke:none;fill-rule:nonzero;fill:#ffffff;fill-opacity:1"
       d="M 290.152344 403.234375 L 274.027344 403.234375 L 274.027344 419.367188 L 290.152344 419.367188 Z M 290.152344 403.234375 "
       id="path434" />
    <path
       style="stroke:none;fill-rule:nonzero;fill:#ffffff;fill-opacity:1"
       d="M 274.027344 403.234375 L 257.90625 403.234375 L 257.90625 419.367188 L 274.027344 419.367188 Z M 274.027344 403.234375 "
       id="path436" />
    <path
       style="stroke:none;fill-rule:nonzero;fill:#ffffff;fill-opacity:1"
       d="M 257.90625 403.234375 L 241.78125 403.234375 L 241.78125 419.367188 L 257.90625 419.367188 Z M 257.90625 403.234375 "
       id="path438" />
    <path
       style="stroke:none;fill-rule:nonzero;fill:#ffffff;fill-opacity:1"
       d="M 241.78125 403.234375 L 225.660156 403.234375 L 225.660156 419.367188 L 241.78125 419.367188 Z M 241.78125 403.234375 "
       id="path440" />
    <path
       style="stroke:none;fill-rule:nonzero;fill:#ffffff;fill-opacity:1"
       d="M 225.660156 403.234375 L 209.535156 403.234375 L 209.535156 419.367188 L 225.660156 419.367188 Z M 225.660156 403.234375 "
       id="path442" />
    <path
       style="stroke:none;fill-rule:nonzero;fill:#ffffff;fill-opacity:1"
       d="M 209.535156 403.234375 L 193.414062 403.234375 L 193.414062 419.367188 L 209.535156 419.367188 Z M 209.535156 403.234375 "
       id="path444" />
    <path
       style="stroke:none;fill-rule:nonzero;fill:#ffffff;fill-opacity:1"
       d="M 193.445312 403.234375 L 177.324219 403.234375 L 177.324219 419.367188 L 193.445312 419.367188 Z M 193.445312 403.234375 "
       id="path446" />
    <path
       style="stroke:none;fill-rule:nonzero;fill:#ffffff;fill-opacity:1"
       d="M 515.8125 290.332031 L 499.6875 290.332031 L 499.6875 306.464844 L 515.8125 306.464844 Z M 515.8125 290.332031 "
       id="path448" />
    <path
       style="stroke:none;fill-rule:nonzero;fill:#ffffff;fill-opacity:1"
       d="M 515.8125 306.464844 L 499.6875 306.464844 L 499.6875 322.601562 L 515.8125 322.601562 Z M 515.8125 306.464844 "
       id="path450" />
    <path
       style="stroke:none;fill-rule:nonzero;fill:#ffffff;fill-opacity:1"
       d="M 515.8125 322.566406 L 499.6875 322.566406 L 499.6875 338.699219 L 515.8125 338.699219 Z M 515.8125 322.566406 "
       id="path452" />
    <path
       style="stroke:none;fill-rule:nonzero;fill:#ffffff;fill-opacity:1"
       d="M 515.8125 338.699219 L 499.6875 338.699219 L 499.6875 354.832031 L 515.8125 354.832031 Z M 515.8125 338.699219 "
       id="path454" />
    <path
       style="stroke:none;fill-rule:nonzero;fill:#ffffff;fill-opacity:1"
       d="M 515.8125 354.832031 L 499.6875 354.832031 L 499.6875 370.964844 L 515.8125 370.964844 Z M 515.8125 354.832031 "
       id="path456" />
    <path
       style="stroke:none;fill-rule:nonzero;fill:#ffffff;fill-opacity:1"
       d="M 177.324219 370.964844 L 161.199219 370.964844 L 161.199219 387.101562 L 177.324219 387.101562 Z M 177.324219 370.964844 "
       id="path458" />
    <path
       style="stroke:none;fill-rule:nonzero;fill:#ffffff;fill-opacity:1"
       d="M 515.8125 370.964844 L 499.6875 370.964844 L 499.6875 387.101562 L 515.8125 387.101562 Z M 515.8125 370.964844 "
       id="path460" />
    <path
       style="stroke:none;fill-rule:nonzero;fill:#ffffff;fill-opacity:1"
       d="M 177.324219 387.101562 L 161.199219 387.101562 L 161.199219 403.234375 L 177.324219 403.234375 Z M 177.324219 387.101562 "
       id="path462" />
    <path
       style="stroke:none;fill-rule:nonzero;fill:#ffffff;fill-opacity:1"
       d="M 515.8125 387.101562 L 499.6875 387.101562 L 499.6875 403.234375 L 515.8125 403.234375 Z M 515.8125 387.101562 "
       id="path464" />
    <path
       style="stroke:none;fill-rule:nonzero;fill:#ffffff;fill-opacity:1"
       d="M 177.324219 403.234375 L 161.199219 403.234375 L 161.199219 419.367188 L 177.324219 419.367188 Z M 177.324219 403.234375 "
       id="path466" />
    <path
       style="stroke:none;fill-rule:nonzero;fill:#ffffff;fill-opacity:1"
       d="M 515.8125 403.234375 L 499.6875 403.234375 L 499.6875 419.367188 L 515.8125 419.367188 Z M 515.8125 403.234375 "
       id="path468" />
    <path
       style="stroke:none;fill-rule:nonzero;fill:#ffffff;fill-opacity:1"
       d="M 177.324219 419.367188 L 161.199219 419.367188 L 161.199219 435.5 L 177.324219 435.5 Z M 177.324219 419.367188 "
       id="path470" />
    <path
       style="stroke:none;fill-rule:nonzero;fill:#ffffff;fill-opacity:1"
       d="M 161.199219 370.964844 L 145.074219 370.964844 L 145.074219 387.101562 L 161.199219 387.101562 Z M 161.199219 370.964844 "
       id="path472" />
    <path
       style="stroke:none;fill-rule:nonzero;fill:#ffffff;fill-opacity:1"
       d="M 161.199219 387.101562 L 145.074219 387.101562 L 145.074219 403.234375 L 161.199219 403.234375 Z M 161.199219 387.101562 "
       id="path474" />
    <path
       style="stroke:none;fill-rule:nonzero;fill:#ffffff;fill-opacity:1"
       d="M 161.199219 403.234375 L 145.074219 403.234375 L 145.074219 419.367188 L 161.199219 419.367188 Z M 161.199219 403.234375 "
       id="path476" />
    <path
       style="stroke:none;fill-rule:nonzero;fill:#ffffff;fill-opacity:1"
       d="M 161.199219 419.367188 L 145.074219 419.367188 L 145.074219 435.5 L 161.199219 435.5 Z M 161.199219 419.367188 "
       id="path478" />
    <path
       style="stroke:none;fill-rule:nonzero;fill:#ffffff;fill-opacity:1"
       d="M 515.8125 419.367188 L 499.6875 419.367188 L 499.6875 435.5 L 515.8125 435.5 Z M 515.8125 419.367188 "
       id="path480" />
    <path
       style="stroke:none;fill-rule:nonzero;fill:#ffffff;fill-opacity:1"
       d="M 515.8125 435.5 L 499.6875 435.5 L 499.6875 451.632812 L 515.8125 451.632812 Z M 515.8125 435.5 "
       id="path482" />
    <path
       style="stroke:none;fill-rule:nonzero;fill:#ffffff;fill-opacity:1"
       d="M 531.933594 48.398438 L 515.8125 48.398438 L 515.8125 64.535156 L 531.933594 64.535156 Z M 531.933594 48.398438 "
       id="path484" />
    <path
       style="stroke:none;fill-rule:nonzero;fill:#ffffff;fill-opacity:1"
       d="M 531.933594 64.5 L 515.8125 64.5 L 515.8125 80.632812 L 531.933594 80.632812 Z M 531.933594 64.5 "
       id="path486" />
    <path
       style="stroke:none;fill-rule:nonzero;fill:#ffffff;fill-opacity:1"
       d="M 531.933594 80.632812 L 515.8125 80.632812 L 515.8125 96.765625 L 531.933594 96.765625 Z M 531.933594 80.632812 "
       id="path488" />
    <path
       style="stroke:none;fill-rule:nonzero;fill:#ffffff;fill-opacity:1"
       d="M 531.933594 96.765625 L 515.8125 96.765625 L 515.8125 112.898438 L 531.933594 112.898438 Z M 531.933594 96.765625 "
       id="path490" />
    <path
       style="stroke:none;fill-rule:nonzero;fill:#ffffff;fill-opacity:1"
       d="M 531.933594 112.898438 L 515.8125 112.898438 L 515.8125 129.035156 L 531.933594 129.035156 Z M 531.933594 112.898438 "
       id="path492" />
    <path
       style="stroke:none;fill-rule:nonzero;fill:#ffffff;fill-opacity:1"
       d="M 531.933594 129.035156 L 515.8125 129.035156 L 515.8125 145.167969 L 531.933594 145.167969 Z M 531.933594 129.035156 "
       id="path494" />
    <path
       style="stroke:none;fill-rule:nonzero;fill:#ffffff;fill-opacity:1"
       d="M 531.933594 145.167969 L 515.8125 145.167969 L 515.8125 161.300781 L 531.933594 161.300781 Z M 531.933594 145.167969 "
       id="path496" />
    <path
       style="stroke:none;fill-rule:nonzero;fill:#ffffff;fill-opacity:1"
       d="M 531.933594 161.300781 L 515.8125 161.300781 L 515.8125 177.433594 L 531.933594 177.433594 Z M 531.933594 161.300781 "
       id="path498" />
    <path
       style="stroke:none;fill-rule:nonzero;fill:#ffffff;fill-opacity:1"
       d="M 531.933594 177.433594 L 515.8125 177.433594 L 515.8125 193.566406 L 531.933594 193.566406 Z M 531.933594 177.433594 "
       id="path500" />
    <path
       style="stroke:none;fill-rule:nonzero;fill:#ffffff;fill-opacity:1"
       d="M 531.933594 193.535156 L 515.8125 193.535156 L 515.8125 209.667969 L 531.933594 209.667969 Z M 531.933594 193.535156 "
       id="path502" />
    <path
       style="stroke:none;fill-rule:nonzero;fill:#ffffff;fill-opacity:1"
       d="M 531.933594 209.667969 L 515.8125 209.667969 L 515.8125 225.800781 L 531.933594 225.800781 Z M 531.933594 209.667969 "
       id="path504" />
    <path
       style="stroke:none;fill-rule:nonzero;fill:#ffffff;fill-opacity:1"
       d="M 531.933594 225.800781 L 515.8125 225.800781 L 515.8125 241.933594 L 531.933594 241.933594 Z M 531.933594 225.800781 "
       id="path506" />
    <path
       style="stroke:none;fill-rule:nonzero;fill:#ffffff;fill-opacity:1"
       d="M 531.933594 241.933594 L 515.8125 241.933594 L 515.8125 258.066406 L 531.933594 258.066406 Z M 531.933594 241.933594 "
       id="path508" />
    <path
       style="stroke:none;fill-rule:nonzero;fill:#ffffff;fill-opacity:1"
       d="M 531.933594 258.066406 L 515.8125 258.066406 L 515.8125 274.199219 L 531.933594 274.199219 Z M 531.933594 258.066406 "
       id="path510" />
    <path
       style="stroke:none;fill-rule:nonzero;fill:#ffffff;fill-opacity:1"
       d="M 531.933594 274.199219 L 515.8125 274.199219 L 515.8125 290.332031 L 531.933594 290.332031 Z M 531.933594 274.199219 "
       id="path512" />
    <path
       style="stroke:none;fill-rule:nonzero;fill:#ffffff;fill-opacity:1"
       d="M 531.933594 290.332031 L 515.8125 290.332031 L 515.8125 306.464844 L 531.933594 306.464844 Z M 531.933594 290.332031 "
       id="path514" />
    <path
       style="stroke:none;fill-rule:nonzero;fill:#ffffff;fill-opacity:1"
       d="M 531.933594 306.464844 L 515.8125 306.464844 L 515.8125 322.601562 L 531.933594 322.601562 Z M 531.933594 306.464844 "
       id="path516" />
    <path
       style="stroke:none;fill-rule:nonzero;fill:#ffffff;fill-opacity:1"
       d="M 531.933594 322.566406 L 515.8125 322.566406 L 515.8125 338.699219 L 531.933594 338.699219 Z M 531.933594 322.566406 "
       id="path518" />
    <path
       style="stroke:none;fill-rule:nonzero;fill:#ffffff;fill-opacity:1"
       d="M 531.933594 338.699219 L 515.8125 338.699219 L 515.8125 354.832031 L 531.933594 354.832031 Z M 531.933594 338.699219 "
       id="path520" />
    <path
       style="stroke:none;fill-rule:nonzero;fill:#ffffff;fill-opacity:1"
       d="M 531.933594 354.832031 L 515.8125 354.832031 L 515.8125 370.964844 L 531.933594 370.964844 Z M 531.933594 354.832031 "
       id="path522" />
    <path
       style="stroke:none;fill-rule:nonzero;fill:#ffffff;fill-opacity:1"
       d="M 531.933594 370.964844 L 515.8125 370.964844 L 515.8125 387.101562 L 531.933594 387.101562 Z M 531.933594 370.964844 "
       id="path524" />
    <path
       style="stroke:none;fill-rule:nonzero;fill:#ffffff;fill-opacity:1"
       d="M 531.933594 387.101562 L 515.8125 387.101562 L 515.8125 403.234375 L 531.933594 403.234375 Z M 531.933594 387.101562 "
       id="path526" />
    <path
       style="stroke:none;fill-rule:nonzero;fill:#ffffff;fill-opacity:1"
       d="M 531.933594 403.234375 L 515.8125 403.234375 L 515.8125 419.367188 L 531.933594 419.367188 Z M 531.933594 403.234375 "
       id="path528" />
    <path
       style="stroke:none;fill-rule:nonzero;fill:#ffffff;fill-opacity:1"
       d="M 531.933594 419.367188 L 515.8125 419.367188 L 515.8125 435.5 L 531.933594 435.5 Z M 531.933594 419.367188 "
       id="path530" />
    <path
       style="stroke:none;fill-rule:nonzero;fill:#ffffff;fill-opacity:1"
       d="M 531.933594 435.5 L 515.8125 435.5 L 515.8125 451.632812 L 531.933594 451.632812 Z M 531.933594 435.5 "
       id="path532" />
    <path
       style="stroke:none;fill-rule:nonzero;fill:#ffffff;fill-opacity:1"
       d="M 209.535156 451.601562 L 193.414062 451.601562 L 193.414062 467.734375 L 209.535156 467.734375 Z M 209.535156 451.601562 "
       id="path534" />
    <path
       style="stroke:none;fill-rule:nonzero;fill:#ffffff;fill-opacity:1"
       d="M 177.324219 435.5 L 161.199219 435.5 L 161.199219 451.632812 L 177.324219 451.632812 Z M 177.324219 435.5 "
       id="path536" />
    <path
       style="stroke:none;fill-rule:nonzero;fill:#ffffff;fill-opacity:1"
       d="M 161.199219 435.5 L 145.074219 435.5 L 145.074219 451.632812 L 161.199219 451.632812 Z M 161.199219 435.5 "
       id="path538" />
    <path
       style="stroke:none;fill-rule:nonzero;fill:#ffffff;fill-opacity:1"
       d="M 193.445312 451.601562 L 177.324219 451.601562 L 177.324219 467.734375 L 193.445312 467.734375 Z M 193.445312 451.601562 "
       id="path540" />
    <path
       style="stroke:none;fill-rule:nonzero;fill:#ffffff;fill-opacity:1"
       d="M 209.535156 467.734375 L 193.414062 467.734375 L 193.414062 483.867188 L 209.535156 483.867188 Z M 209.535156 467.734375 "
       id="path542" />
    <path
       style="stroke:none;fill-rule:nonzero;fill:#ffffff;fill-opacity:1"
       d="M 193.445312 467.734375 L 177.324219 467.734375 L 177.324219 483.867188 L 193.445312 483.867188 Z M 193.445312 467.734375 "
       id="path544" />
    <path
       style="stroke:none;fill-rule:nonzero;fill:#ffffff;fill-opacity:1"
       d="M 499.6875 451.601562 L 483.5625 451.601562 L 483.5625 467.734375 L 499.6875 467.734375 Z M 499.6875 451.601562 "
       id="path546" />
    <path
       style="stroke:none;fill-rule:nonzero;fill:#ffffff;fill-opacity:1"
       d="M 499.6875 467.734375 L 483.5625 467.734375 L 483.5625 483.867188 L 499.6875 483.867188 Z M 499.6875 467.734375 "
       id="path548" />
    <path
       style="stroke:none;fill-rule:nonzero;fill:#ffffff;fill-opacity:1"
       d="M 515.8125 451.601562 L 499.6875 451.601562 L 499.6875 467.734375 L 515.8125 467.734375 Z M 515.8125 451.601562 "
       id="path550" />
    <path
       style="stroke:none;fill-rule:nonzero;fill:#ffffff;fill-opacity:1"
       d="M 515.8125 467.734375 L 499.6875 467.734375 L 499.6875 483.867188 L 515.8125 483.867188 Z M 515.8125 467.734375 "
       id="path552" />
    <path
       style="stroke:none;fill-rule:nonzero;fill:#ffffff;fill-opacity:1"
       d="M 225.660156 467.734375 L 209.535156 467.734375 L 209.535156 483.867188 L 225.660156 483.867188 Z M 225.660156 467.734375 "
       id="path554" />
    <path
       style="stroke:none;fill-rule:nonzero;fill:#ffffff;fill-opacity:1"
       d="M 241.78125 467.734375 L 225.660156 467.734375 L 225.660156 483.867188 L 241.78125 483.867188 Z M 241.78125 467.734375 "
       id="path556" />
    <path
       style="stroke:none;fill-rule:nonzero;fill:#ffffff;fill-opacity:1"
       d="M 257.90625 467.734375 L 241.78125 467.734375 L 241.78125 483.867188 L 257.90625 483.867188 Z M 257.90625 467.734375 "
       id="path558" />
    <path
       style="stroke:none;fill-rule:nonzero;fill:#ffffff;fill-opacity:1"
       d="M 274.027344 467.734375 L 257.90625 467.734375 L 257.90625 483.867188 L 274.027344 483.867188 Z M 274.027344 467.734375 "
       id="path560" />
    <path
       style="stroke:none;fill-rule:nonzero;fill:#ffffff;fill-opacity:1"
       d="M 290.152344 467.734375 L 274.027344 467.734375 L 274.027344 483.867188 L 290.152344 483.867188 Z M 290.152344 467.734375 "
       id="path562" />
    <path
       style="stroke:none;fill-rule:nonzero;fill:#ffffff;fill-opacity:1"
       d="M 306.273438 467.734375 L 290.152344 467.734375 L 290.152344 483.867188 L 306.273438 483.867188 Z M 306.273438 467.734375 "
       id="path564" />
    <path
       style="stroke:none;fill-rule:nonzero;fill:#ffffff;fill-opacity:1"
       d="M 322.398438 467.734375 L 306.273438 467.734375 L 306.273438 483.867188 L 322.398438 483.867188 Z M 322.398438 467.734375 "
       id="path566" />
    <path
       style="stroke:none;fill-rule:nonzero;fill:#ffffff;fill-opacity:1"
       d="M 338.488281 467.734375 L 322.363281 467.734375 L 322.363281 483.867188 L 338.488281 483.867188 Z M 338.488281 467.734375 "
       id="path568" />
    <path
       style="stroke:none;fill-rule:nonzero;fill:#ffffff;fill-opacity:1"
       d="M 354.613281 467.734375 L 338.488281 467.734375 L 338.488281 483.867188 L 354.613281 483.867188 Z M 354.613281 467.734375 "
       id="path570" />
    <path
       style="stroke:none;fill-rule:nonzero;fill:#ffffff;fill-opacity:1"
       d="M 370.734375 467.734375 L 354.613281 467.734375 L 354.613281 483.867188 L 370.734375 483.867188 Z M 370.734375 467.734375 "
       id="path572" />
    <path
       style="stroke:none;fill-rule:nonzero;fill:#ffffff;fill-opacity:1"
       d="M 386.859375 467.734375 L 370.734375 467.734375 L 370.734375 483.867188 L 386.859375 483.867188 Z M 386.859375 467.734375 "
       id="path574" />
    <path
       style="stroke:none;fill-rule:nonzero;fill:#ffffff;fill-opacity:1"
       d="M 402.980469 467.734375 L 386.859375 467.734375 L 386.859375 483.867188 L 402.980469 483.867188 Z M 402.980469 467.734375 "
       id="path576" />
    <path
       style="stroke:none;fill-rule:nonzero;fill:#ffffff;fill-opacity:1"
       d="M 419.105469 467.734375 L 402.980469 467.734375 L 402.980469 483.867188 L 419.105469 483.867188 Z M 419.105469 467.734375 "
       id="path578" />
    <path
       style="stroke:none;fill-rule:nonzero;fill:#ffffff;fill-opacity:1"
       d="M 435.226562 467.734375 L 419.105469 467.734375 L 419.105469 483.867188 L 435.226562 483.867188 Z M 435.226562 467.734375 "
       id="path580" />
    <path
       style="stroke:none;fill-rule:nonzero;fill:#ffffff;fill-opacity:1"
       d="M 451.351562 467.734375 L 435.226562 467.734375 L 435.226562 483.867188 L 451.351562 483.867188 Z M 451.351562 467.734375 "
       id="path582" />
    <path
       style="stroke:none;fill-rule:nonzero;fill:#ffffff;fill-opacity:1"
       d="M 467.441406 467.734375 L 451.316406 467.734375 L 451.316406 483.867188 L 467.441406 483.867188 Z M 467.441406 467.734375 "
       id="path584" />
    <path
       style="stroke:none;fill-rule:nonzero;fill:#ffffff;fill-opacity:1"
       d="M 483.5625 467.734375 L 467.441406 467.734375 L 467.441406 483.867188 L 483.5625 483.867188 Z M 483.5625 467.734375 "
       id="path586" />
    <path
       style="stroke:none;fill-rule:nonzero;fill:#ffffff;fill-opacity:1"
       d="M 225.660156 483.867188 L 209.535156 483.867188 L 209.535156 500 L 225.660156 500 Z M 225.660156 483.867188 "
       id="path588" />
    <path
       style="stroke:none;fill-rule:nonzero;fill:#ffffff;fill-opacity:1"
       d="M 241.78125 483.867188 L 225.660156 483.867188 L 225.660156 500 L 241.78125 500 Z M 241.78125 483.867188 "
       id="path590" />
    <path
       style="stroke:none;fill-rule:nonzero;fill:#ffffff;fill-opacity:1"
       d="M 257.90625 483.867188 L 241.78125 483.867188 L 241.78125 500 L 257.90625 500 Z M 257.90625 483.867188 "
       id="path592" />
    <path
       style="stroke:none;fill-rule:nonzero;fill:#ffffff;fill-opacity:1"
       d="M 274.027344 483.867188 L 257.90625 483.867188 L 257.90625 500 L 274.027344 500 Z M 274.027344 483.867188 "
       id="path594" />
    <path
       style="stroke:none;fill-rule:nonzero;fill:#ffffff;fill-opacity:1"
       d="M 290.152344 483.867188 L 274.027344 483.867188 L 274.027344 500 L 290.152344 500 Z M 290.152344 483.867188 "
       id="path596" />
    <path
       style="stroke:none;fill-rule:nonzero;fill:#ffffff;fill-opacity:1"
       d="M 306.273438 483.867188 L 290.152344 483.867188 L 290.152344 500 L 306.273438 500 Z M 306.273438 483.867188 "
       id="path598" />
    <path
       style="stroke:none;fill-rule:nonzero;fill:#ffffff;fill-opacity:1"
       d="M 322.398438 483.867188 L 306.273438 483.867188 L 306.273438 500 L 322.398438 500 Z M 322.398438 483.867188 "
       id="path600" />
    <path
       style="stroke:none;fill-rule:nonzero;fill:#ffffff;fill-opacity:1"
       d="M 338.488281 483.867188 L 322.363281 483.867188 L 322.363281 500 L 338.488281 500 Z M 338.488281 483.867188 "
       id="path602" />
    <path
       style="stroke:none;fill-rule:nonzero;fill:#ffffff;fill-opacity:1"
       d="M 354.613281 483.867188 L 338.488281 483.867188 L 338.488281 500 L 354.613281 500 Z M 354.613281 483.867188 "
       id="path604" />
    <path
       style="stroke:none;fill-rule:nonzero;fill:#ffffff;fill-opacity:1"
       d="M 370.734375 483.867188 L 354.613281 483.867188 L 354.613281 500 L 370.734375 500 Z M 370.734375 483.867188 "
       id="path606" />
    <path
       style="stroke:none;fill-rule:nonzero;fill:#ffffff;fill-opacity:1"
       d="M 386.859375 483.867188 L 370.734375 483.867188 L 370.734375 500 L 386.859375 500 Z M 386.859375 483.867188 "
       id="path608" />
    <path
       style="stroke:none;fill-rule:nonzero;fill:#ffffff;fill-opacity:1"
       d="M 402.980469 483.867188 L 386.859375 483.867188 L 386.859375 500 L 402.980469 500 Z M 402.980469 483.867188 "
       id="path610" />
    <path
       style="stroke:none;fill-rule:nonzero;fill:#ffffff;fill-opacity:1"
       d="M 419.105469 483.867188 L 402.980469 483.867188 L 402.980469 500 L 419.105469 500 Z M 419.105469 483.867188 "
       id="path612" />
    <path
       style="stroke:none;fill-rule:nonzero;fill:#ffffff;fill-opacity:1"
       d="M 435.226562 483.867188 L 419.105469 483.867188 L 419.105469 500 L 435.226562 500 Z M 435.226562 483.867188 "
       id="path614" />
    <path
       style="stroke:none;fill-rule:nonzero;fill:#ffffff;fill-opacity:1"
       d="M 451.351562 483.867188 L 435.226562 483.867188 L 435.226562 500 L 451.351562 500 Z M 451.351562 483.867188 "
       id="path616" />
    <path
       style="stroke:none;fill-rule:nonzero;fill:#ffffff;fill-opacity:1"
       d="M 467.441406 483.867188 L 451.316406 483.867188 L 451.316406 500 L 467.441406 500 Z M 467.441406 483.867188 "
       id="path618" />
    <path
       style="stroke:none;fill-rule:nonzero;fill:#ffffff;fill-opacity:1"
       d="M 483.5625 483.867188 L 467.441406 483.867188 L 467.441406 500 L 483.5625 500 Z M 483.5625 483.867188 "
       id="path620" />
  </g>
</svg>
