<?xml version="1.0" encoding="UTF-8"?><svg id="Layer_2" xmlns="http://www.w3.org/2000/svg" viewBox="0 0 538.74 196.26"><defs><style>.cls-1{fill:#dcd0b8;}</style></defs><g id="Layer_1-2"><rect class="cls-1" x="63.31" y="6.33" width="6.33" height="6.33"/><polygon class="cls-1" points="75.97 12.66 82.3 12.66 88.63 12.66 88.63 6.33 82.3 6.33 82.3 0 75.97 0 69.64 0 69.64 6.33 75.97 6.33 75.97 12.66"/><polygon class="cls-1" points="94.96 12.66 101.3 12.66 107.63 12.66 107.63 6.33 101.3 6.33 101.3 0 94.96 0 88.63 0 88.63 6.33 94.96 6.33 94.96 12.66"/><polygon class="cls-1" points="113.96 12.66 120.29 12.66 126.62 12.66 126.62 6.33 120.29 6.33 120.29 0 113.96 0 107.63 0 107.63 6.33 113.96 6.33 113.96 12.66"/><polygon class="cls-1" points="132.95 12.66 139.28 12.66 139.28 18.99 145.61 18.99 151.94 18.99 158.28 18.99 158.28 12.66 164.61 12.66 164.61 6.33 158.28 6.33 158.28 0 151.94 0 145.61 0 145.61 6.33 151.94 6.33 151.94 12.66 145.61 12.66 145.61 6.33 139.28 6.33 139.28 0 132.95 0 126.62 0 126.62 6.33 132.95 6.33 132.95 12.66"/><polygon class="cls-1" points="170.94 12.66 177.27 12.66 183.6 12.66 183.6 18.99 189.93 18.99 196.26 18.99 196.26 12.66 189.93 12.66 189.93 6.33 183.6 6.33 177.27 6.33 177.27 0 170.94 0 164.61 0 164.61 6.33 170.94 6.33 170.94 12.66"/><rect class="cls-1" x="69.64" y="12.66" width="6.33" height="6.33"/><rect class="cls-1" x="88.63" y="12.66" width="6.33" height="6.33"/><rect class="cls-1" x="107.63" y="12.66" width="6.33" height="6.33"/><rect class="cls-1" x="126.62" y="12.66" width="6.33" height="6.33"/><rect class="cls-1" x="164.61" y="12.66" width="6.33" height="6.33"/><polygon class="cls-1" points="63.31 63.31 69.64 63.31 75.97 63.31 82.3 63.31 88.63 63.31 94.96 63.31 101.3 63.31 107.63 63.31 113.96 63.31 120.29 63.31 126.62 63.31 126.62 56.98 120.29 56.98 113.96 56.98 107.63 56.98 101.3 56.98 94.96 56.98 88.63 56.98 82.3 56.98 75.97 56.98 69.64 56.98 63.31 56.98 63.31 63.31"/><polygon class="cls-1" points="107.63 82.3 101.3 82.3 94.96 82.3 88.63 82.3 82.3 82.3 75.97 82.3 69.64 82.3 63.31 82.3 56.98 82.3 50.65 82.3 50.65 88.63 56.98 88.63 63.31 88.63 69.64 88.63 75.97 88.63 82.3 88.63 88.63 88.63 94.96 88.63 101.3 88.63 107.63 88.63 113.96 88.63 120.29 88.63 120.29 82.3 113.96 82.3 107.63 82.3"/><polygon class="cls-1" points="69.64 164.61 75.97 164.61 82.3 164.61 88.63 164.61 94.96 164.61 101.3 164.61 107.63 164.61 113.96 164.61 120.29 164.61 126.62 164.61 132.95 164.61 139.28 164.61 145.61 164.61 151.94 164.61 158.28 164.61 164.61 164.61 170.94 164.61 177.27 164.61 177.27 158.27 170.94 158.27 164.61 158.27 158.28 158.27 151.94 158.27 145.61 158.27 139.28 158.27 132.95 158.27 126.62 158.27 120.29 158.27 113.96 158.27 107.63 158.27 101.3 158.27 94.96 158.27 88.63 158.27 82.3 158.27 75.97 158.27 69.64 158.27 69.64 151.94 69.64 145.61 75.97 145.61 82.3 145.61 88.63 145.61 94.96 145.61 101.3 145.61 107.63 145.61 113.96 145.61 120.29 145.61 126.62 145.61 126.62 139.28 132.95 139.28 139.28 139.28 145.61 139.28 151.94 139.28 158.28 139.28 164.61 139.28 170.94 139.28 177.27 139.28 177.27 132.95 170.94 132.95 164.61 132.95 158.28 132.95 151.94 132.95 145.61 132.95 139.28 132.95 132.95 132.95 132.95 126.62 132.95 120.29 139.28 120.29 139.28 113.96 145.61 113.96 151.94 113.96 158.28 113.96 164.61 113.96 170.94 113.96 177.27 113.96 177.27 107.63 170.94 107.63 164.61 107.63 158.28 107.63 151.94 107.63 145.61 107.63 145.61 101.3 145.61 94.96 151.94 94.96 151.94 88.63 158.28 88.63 164.61 88.63 170.94 88.63 177.27 88.63 177.27 82.3 170.94 82.3 164.61 82.3 158.28 82.3 158.28 75.97 158.28 69.64 164.61 69.64 164.61 63.31 170.94 63.31 177.27 63.31 177.27 56.98 170.94 56.98 170.94 50.65 177.27 50.65 177.27 44.32 177.27 37.99 177.27 31.66 183.6 31.66 183.6 25.32 183.6 18.99 177.27 18.99 170.94 18.99 170.94 25.32 170.94 31.66 164.61 31.66 164.61 37.99 164.61 44.32 158.28 44.32 158.28 50.65 158.28 56.98 151.94 56.98 151.94 63.31 151.94 69.64 145.61 69.64 145.61 75.97 145.61 82.3 139.28 82.3 139.28 88.63 139.28 94.96 132.95 94.96 132.95 101.3 132.95 107.63 126.62 107.63 126.62 113.96 126.62 120.29 120.29 120.29 120.29 126.62 120.29 132.95 113.96 132.95 107.63 132.95 101.3 132.95 94.96 132.95 88.63 132.95 82.3 132.95 75.97 132.95 69.64 132.95 63.31 132.95 56.98 132.95 50.65 132.95 44.32 132.95 37.99 132.95 31.65 132.95 25.32 132.95 18.99 132.95 12.66 132.95 12.66 126.62 12.66 120.29 12.66 113.96 18.99 113.96 18.99 107.63 18.99 101.3 25.32 101.3 25.32 94.96 25.32 88.63 31.65 88.63 31.65 82.3 31.65 75.97 37.99 75.97 37.99 69.64 37.99 63.31 44.32 63.31 44.32 56.98 44.32 50.65 50.65 50.65 50.65 44.32 50.65 37.99 56.98 37.99 56.98 31.66 56.98 25.32 63.31 25.32 63.31 18.99 63.31 12.66 56.98 12.66 50.65 12.66 50.65 18.99 50.65 25.32 44.32 25.32 44.32 31.66 44.32 37.99 37.99 37.99 37.99 44.32 37.99 50.65 31.65 50.65 31.65 56.98 31.65 63.31 25.32 63.31 25.32 69.64 25.32 75.97 18.99 75.97 18.99 82.3 18.99 88.63 12.66 88.63 12.66 94.96 12.66 101.3 6.33 101.3 6.33 107.63 6.33 113.96 0 113.96 0 120.29 0 126.62 0 132.95 0 139.28 6.33 139.28 12.66 139.28 12.66 145.61 18.99 145.61 25.32 145.61 31.65 145.61 37.99 145.61 44.32 145.61 50.65 145.61 56.98 145.61 56.98 151.94 56.98 158.27 56.98 164.61 56.98 170.94 56.98 177.27 63.31 177.27 69.64 177.27 69.64 170.94 69.64 164.61"/><polygon class="cls-1" points="202.59 18.99 196.26 18.99 196.26 25.32 196.26 31.66 196.26 37.99 196.26 44.32 196.26 50.65 196.26 56.98 196.26 63.31 196.26 69.64 196.26 75.97 196.26 82.3 196.26 88.63 196.26 94.96 196.26 101.3 196.26 107.63 196.26 113.96 196.26 120.29 196.26 126.62 196.26 132.95 196.26 139.28 196.26 145.61 196.26 151.94 196.26 158.27 196.26 164.61 196.26 170.94 196.26 177.27 189.93 177.27 189.93 183.6 183.6 183.6 177.27 183.6 170.94 183.6 164.61 183.6 158.28 183.6 151.94 183.6 145.61 183.6 139.28 183.6 132.95 183.6 126.62 183.6 120.29 183.6 113.96 183.6 107.63 183.6 101.3 183.6 94.96 183.6 88.63 183.6 82.3 183.6 82.3 177.27 75.97 177.27 69.64 177.27 69.64 183.6 69.64 189.93 75.97 189.93 82.3 189.93 82.3 196.26 88.63 196.26 94.96 196.26 101.3 196.26 107.63 196.26 113.96 196.26 120.29 196.26 126.62 196.26 132.95 196.26 139.28 196.26 145.61 196.26 151.94 196.26 158.28 196.26 164.61 196.26 170.94 196.26 177.27 196.26 183.6 196.26 189.93 196.26 189.93 189.93 196.26 189.93 202.59 189.93 202.59 183.6 202.59 177.27 208.92 177.27 208.92 170.94 208.92 164.61 208.92 158.27 208.92 151.94 208.92 145.61 208.92 139.28 208.92 132.95 208.92 126.62 208.92 120.29 208.92 113.96 208.92 107.63 208.92 101.3 208.92 94.96 208.92 88.63 208.92 82.3 208.92 75.97 208.92 69.64 208.92 63.31 208.92 56.98 208.92 50.65 208.92 44.32 208.92 37.99 208.92 31.66 208.92 25.32 208.92 18.99 202.59 18.99"/><path class="cls-1" d="M256.43,113.96v-13.61h13.61v13.61h-13.61Z"/><path class="cls-1" d="M293.94,113.96V32.16h-27.27v-13.66h68.14v13.66h-27.27v81.8h-13.61Z"/><path class="cls-1" d="M346.03,113.96v-20.42h6.81v-6.85h6.8v-6.81h6.8v-6.81h6.85v-13.66h-6.85v-6.81h-6.8v-6.8h-6.8v-6.85h-6.81v-20.46h13.61v13.66h6.8v6.81h6.85v6.85h6.8v6.8h6.8v-6.8h6.85v-6.85h6.81v-6.81h6.8v-13.66h13.66v20.46h-6.85v6.85h-6.8v6.8h-6.8v6.81h-6.81v13.66h6.81v6.81h6.8v6.81h6.8v6.85h6.85v20.42h-13.66v-13.61h-6.8v-6.8h-6.81v-6.85h-6.85v-6.81h-6.8v6.81h-6.8v6.85h-6.85v6.8h-6.8v13.61h-13.61Z"/><path class="cls-1" d="M459.53,113.96V32.16h-27.27v-13.66h68.14v13.66h-27.27v81.8h-13.61Z"/><path class="cls-1" d="M257.25,145.28h5.95l14.41,24.03h.09v-24.03h5.32v31.99h-5.91l-14.45-23.94h-.09v23.94h-5.32v-31.99Z"/><path class="cls-1" d="M298.56,177.94c-7.16,0-11.5-4.97-11.5-12.08s4.34-12.08,11.5-12.08,11.5,4.97,11.5,12.08-4.34,12.08-11.5,12.08ZM298.56,174.09c4.47,0,6.8-3.53,6.8-8.23s-2.33-8.23-6.8-8.23-6.8,3.49-6.8,8.23,2.33,8.23,6.8,8.23Z"/><path class="cls-1" d="M344.68,165.86c0,7.52-4.34,12.08-10.2,12.08-3.53,0-5.77-1.74-6.98-3.31h-.09v2.64h-4.7v-31.99h4.7v11.9h.09c1.21-1.75,3.45-3.4,6.98-3.4,5.86,0,10.2,4.56,10.2,12.08ZM339.98,165.86c0-4.47-2.19-8.23-6.31-8.23-3.85,0-6.22,3.13-6.22,8.23s2.37,8.23,6.22,8.23c4.12,0,6.31-3.76,6.31-8.23Z"/><path class="cls-1" d="M357.66,157.49c-3.76,0-5.14,1.16-5.37,4.12h-4.56c.22-4.38,3.04-7.83,9.93-7.83,5.06,0,8.81,1.92,8.81,8.01v10.87c0,1.61.36,2.46,2.19,2.28v2.24c-1.07.4-1.83.49-2.73.49-2.51,0-3.67-.89-4.12-3.13h-.09c-1.43,2.01-4.03,3.4-7.56,3.4-4.65,0-7.52-2.68-7.52-6.53,0-5.01,3.71-6.58,9.44-7.7,3.53-.67,5.68-1.12,5.68-3.31,0-1.66-.99-2.91-4.12-2.91ZM361.78,168.59v-3.44c-.76.54-2.6,1.07-4.79,1.52-3.89.85-5.59,1.97-5.59,4.3,0,2.1,1.25,3.27,3.8,3.27,3.89,0,6.58-1.92,6.58-5.64Z"/><path class="cls-1" d="M391.9,145.28v31.99h-4.7v-2.64h-.09c-1.21,1.57-3.45,3.31-6.98,3.31-5.86,0-10.2-4.56-10.2-12.08s4.34-12.08,10.2-12.08c3.53,0,5.77,1.66,6.98,3.4h.09v-11.9h4.7ZM387.16,165.86c0-5.1-2.37-8.23-6.22-8.23-4.12,0-6.31,3.76-6.31,8.23s2.19,8.23,6.31,8.23c3.85,0,6.22-3.18,6.22-8.23Z"/><path class="cls-1" d="M405.05,161.25c0-9.62,6.04-16.64,15.7-16.64s15.7,7.02,15.7,16.64-6.08,16.69-15.7,16.69-15.7-7.07-15.7-16.69ZM431.14,161.25c0-6.44-3.04-12.08-10.38-12.08s-10.42,5.64-10.42,12.08,3.09,12.12,10.42,12.12,10.38-5.64,10.38-12.12Z"/><path class="cls-1" d="M460.27,154.4v22.86h-4.7v-2.95h-.09c-1.21,1.79-3.58,3.58-7.52,3.58-4.25,0-7.61-2.46-7.61-7.7v-15.79h4.74v14.45c0,3.09,1.3,5.06,4.52,5.06,3.62,0,5.95-2.19,5.95-5.59v-13.91h4.7Z"/><path class="cls-1" d="M471.03,158.25v12.39c0,2.59,1.25,2.91,4.3,2.73v3.85c-.94.22-1.97.36-3.22.36-3.76,0-5.82-1.7-5.82-6.53v-12.8h-3.31v-3.85h3.31v-7.2h4.74v7.2h4.3v3.85h-4.3Z"/><path class="cls-1" d="M500.47,165.86c0,7.52-4.34,12.08-10.16,12.08-3.58,0-5.82-1.7-7.02-3.4h-.09v10.51h-4.74v-30.65h4.74v2.68h.09c1.21-1.61,3.45-3.31,7.02-3.31,5.82,0,10.16,4.56,10.16,12.08ZM495.73,165.86c0-4.47-2.19-8.23-6.31-8.23-3.8,0-6.17,3.13-6.17,8.23s2.37,8.23,6.17,8.23c4.12,0,6.31-3.76,6.31-8.23Z"/><path class="cls-1" d="M523.7,154.4v22.86h-4.7v-2.95h-.09c-1.21,1.79-3.58,3.58-7.52,3.58-4.25,0-7.61-2.46-7.61-7.7v-15.79h4.74v14.45c0,3.09,1.3,5.06,4.52,5.06,3.62,0,5.95-2.19,5.95-5.59v-13.91h4.7Z"/><path class="cls-1" d="M534.45,158.25v12.39c0,2.59,1.25,2.91,4.3,2.73v3.85c-.94.22-1.97.36-3.22.36-3.76,0-5.82-1.7-5.82-6.53v-12.8h-3.31v-3.85h3.31v-7.2h4.74v7.2h4.3v3.85h-4.3Z"/></g></svg>